<svg xmlns="http://www.w3.org/2000/svg" width="282" height="232" viewBox="0 0 282 232"><defs><style>.a{fill:#d1d3d4;}.b,.e{fill:#fff;}.c{fill:#231f20;}.d{fill:#68b64d;}.e{font-size:16px;font-family:SegoeUI-Semibold, Segoe UI;font-weight:600;}</style></defs><g transform="translate(-65.857 -44)"><path class="a" d="M323.533,231.233H43.452a.412.412,0,0,1-.412-.412.421.421,0,0,1,.412-.412H323.533a.421.421,0,0,1,.412.412A.412.412,0,0,1,323.533,231.233Z" transform="translate(23.408 5.893)"/><rect class="b" width="280.39" height="171.366" rx="5.37" transform="translate(66.962 44.505)"/><path class="c" d="M341.792,216.386H72.478a6.058,6.058,0,0,1-6.048-6.058V50.037A6.048,6.048,0,0,1,72.478,44H341.792a6.048,6.048,0,0,1,6.048,6.048v160.28a6.058,6.058,0,0,1-6.048,6.058ZM72.478,45.03a5.017,5.017,0,0,0-5.017,5.017v160.28a5.028,5.028,0,0,0,5.017,5.028H341.792a5.028,5.028,0,0,0,5.017-5.028V50.037a5.017,5.017,0,0,0-5.017-5.007Z" transform="translate(0.017)"/><path class="a" d="M190.947,163.7H82.644a.474.474,0,0,1-.474-.474.484.484,0,0,1,.474-.474h108.3a.484.484,0,0,1,.474.474A.474.474,0,0,1,190.947,163.7Z" transform="translate(0.494 3.694)"/><path class="a" d="M139.334,203.545a.474.474,0,0,1-.474-.474V163.014a.474.474,0,0,1,.474-.474.484.484,0,0,1,.474.474V203.05A.484.484,0,0,1,139.334,203.545Z" transform="translate(2.21 3.709)"/><path class="a" d="M324.314,137.8H199.774a.474.474,0,0,1-.474-.474.464.464,0,0,1,.474-.474h124.54a.464.464,0,0,1,.474.474.474.474,0,0,1-.474.474Z" transform="translate(4.04 2.889)"/><path class="a" d="M324.314,149.618H199.774a.464.464,0,0,1-.474-.474.474.474,0,0,1,.474-.474h124.54a.474.474,0,0,1,.474.474.464.464,0,0,1-.474.474Z" transform="translate(4.04 3.256)"/><path class="a" d="M324.314,161.448H199.774a.474.474,0,0,1,0-.948h124.54a.474.474,0,0,1,0,.948Z" transform="translate(4.04 3.624)"/><path class="a" d="M324.312,173.278H199.772a.484.484,0,0,1,0-.958h124.54a.484.484,0,0,1,0,.958Z" transform="translate(4.042 3.992)"/><path class="a" d="M324.314,185.1H199.774a.474.474,0,0,1,0-.948h124.54a.474.474,0,0,1,0,.948Z" transform="translate(4.04 4.36)"/><path class="a" d="M331.082,121.838H187.194a.474.474,0,0,1-.474-.474.484.484,0,0,1,.474-.474H331.082a.484.484,0,0,1,.474.474.474.474,0,0,1-.474.474Z" transform="translate(3.659 2.392)"/><rect class="d" width="74.231" height="26.437" rx="2.08" transform="translate(197.241 75.928)"/><path class="a" d="M187.574,205.436a.464.464,0,0,1-.474-.474V68.574a.474.474,0,0,1,.474-.474.484.484,0,0,1,.474.474V204.962a.474.474,0,0,1-.474.474Z" transform="translate(3.671 0.73)"/><path class="a" d="M335.353,68.718H77.784a.474.474,0,0,1-.474-.474.484.484,0,0,1,.474-.474H335.353a.484.484,0,0,1,.484.474.474.474,0,0,1-.484.474Z" transform="translate(0.347 0.72)"/><path class="c" d="M330.041,207.223H83.558a6.058,6.058,0,0,1-6.058-6.048V58.678a6.068,6.068,0,0,1,6.058-6.058H330.041a6.068,6.068,0,0,1,6.058,6.058v142.5a6.058,6.058,0,0,1-6.058,6.048ZM83.558,53.65a5.038,5.038,0,0,0-5.028,5.028v142.5a5.028,5.028,0,0,0,5.028,5.017H330.041a5.028,5.028,0,0,0,5.028-5.018V58.678a5.038,5.038,0,0,0-5.028-5.028Z" transform="translate(0.353 0.261)"/><path class="b" d="M233.013,210.872l-29.569-.072-29.559.072s-2.607,26.787-19.575,38.254h98.3C235.619,237.69,233.013,210.872,233.013,210.872Z" transform="translate(2.678 5.237)"/><path class="c" d="M252.614,249.657H154.3a.5.5,0,0,1-.484-.361.5.5,0,0,1,.206-.577c16.577-11.168,19.328-37.615,19.359-37.883a.515.515,0,0,1,.515-.464l29.559-.072,29.569.072a.525.525,0,0,1,.515.464c0,.268,2.782,26.715,19.359,37.883a.525.525,0,0,1,.206.577A.515.515,0,0,1,252.614,249.657Zm-96.691-1.03h95.084c-14.63-11.014-18-33.7-18.432-37.224l-29.116-.072-29.105.072c-.443,3.524-3.8,26.21-18.432,37.224Z" transform="translate(2.662 5.222)"/><rect class="b" width="123.211" height="10.2" rx="4.86" transform="translate(144.522 254.363)"/><path class="c" d="M260.429,258.74h-113.2a5.533,5.533,0,0,1-5.522-5.522v-.2a5.533,5.533,0,0,1,5.522-5.522h113.2a5.533,5.533,0,0,1,5.522,5.522v.2A5.533,5.533,0,0,1,260.429,258.74Zm-113.2-10.21a4.5,4.5,0,0,0-4.492,4.492v.2a4.5,4.5,0,0,0,4.492,4.492h113.2a4.5,4.5,0,0,0,4.492-4.492v-.2a4.5,4.5,0,0,0-4.492-4.492Z" transform="translate(2.297 6.348)"/><circle class="d" cx="3.225" cy="3.225" r="3.225" transform="translate(91.287 58.681)"/><circle class="c" cx="3.225" cy="3.225" r="3.225" transform="translate(103.888 58.681)"/><circle class="c" cx="3.225" cy="3.225" r="3.225" transform="translate(116.498 58.681)"/><path class="c" d="M94.19,138.135a4.667,4.667,0,0,1-2.061-.412,3.472,3.472,0,0,1-1.813-2.215,5.151,5.151,0,0,1-.175-1.927,18.041,18.041,0,0,1,.474-2.617,43.592,43.592,0,0,1,2.473-6.923c.453-1.03,1.185-1.566,1.927-1.308.422.144.927.577.9,1.813a11.2,11.2,0,0,1-.1,1.854,12.711,12.711,0,0,0-.1,1.741A12.363,12.363,0,0,0,98.8,126.08a10.674,10.674,0,0,1,4.039-2.38,2.452,2.452,0,0,1,1.968.155,1.432,1.432,0,0,1,.556,1.1,1.669,1.669,0,0,1-.072.639,1.8,1.8,0,0,1,.577,0,1.288,1.288,0,0,1,1.03,1.133,1.628,1.628,0,0,1,0,.33,1.4,1.4,0,0,1,1.37.6,1.1,1.1,0,0,1,.165.453h0a1.885,1.885,0,0,1,1.36.4,1.411,1.411,0,0,1,.525.958,2.061,2.061,0,0,1-.773,1.587c-2.926,2.885-7.274,4.554-11.1,6.027l-.515.206h0A11.57,11.57,0,0,1,94.19,138.135Zm.443-14.424c-.165,0-.422.319-.608.742a43.015,43.015,0,0,0-2.39,6.8,16.67,16.67,0,0,0-.443,2.462,4.5,4.5,0,0,0,.124,1.545,2.483,2.483,0,0,0,1.278,1.587c1.515.731,3.822,0,5.069-.443l.515-.2c3.73-1.442,7.964-3.091,10.746-5.8.206-.206.484-.515.464-.762a.391.391,0,0,0-.144-.258.886.886,0,0,0-.6-.175,2,2,0,0,0-.845.35,3.184,3.184,0,0,1-.525.371.525.525,0,0,1-.69-.165.515.515,0,0,1,.124-.69l.464-.34a.886.886,0,0,0,.288-.381c-.062-.175-.309-.227-.628-.165a3.255,3.255,0,0,0-.968.371,11.129,11.129,0,0,1-.917.783.515.515,0,0,1-.711-.742,4.441,4.441,0,0,1,1.03-.865c.175-.165.34-.34.5-.525s.216-.288.216-.35-.1-.144-.237-.165a1.5,1.5,0,0,0-.7.124,9.057,9.057,0,0,0-1.113.484c-.3.216-.608.412-.9.6a7.914,7.914,0,0,0-.8.556h0a.515.515,0,1,1-.68-.773h0a10.169,10.169,0,0,1,1.8-1.236c.577-.422,1.03-.9,1.03-1.319,0-.258-.113-.33-.144-.35a1.783,1.783,0,0,0-1.113,0,9.829,9.829,0,0,0-3.637,2.184,11.2,11.2,0,0,1-4.121,2.473.515.515,0,0,1-.443-.082.546.546,0,0,1-.206-.4,20.855,20.855,0,0,1,.1-2.545c.052-.6.093-1.2.1-1.793s-.093-.783-.206-.814Zm3.214,13.095Z" transform="translate(0.734 2.452)"/><path class="b" d="M95.17,128.84a4.77,4.77,0,0,1,.093,5.965h.3" transform="translate(0.887 2.641)"/><path class="c" d="M95.278,135.335a.518.518,0,0,1-.4-.845,4.245,4.245,0,0,0-.082-5.3.515.515,0,1,1,.783-.67,5.265,5.265,0,0,1,.474,6.089.855.855,0,0,1,0,.155.515.515,0,0,1-.484.546h-.3Z" transform="translate(0.872 2.626)"/><rect class="b" width="75.406" height="35.781" rx="3.34" transform="translate(96.676 97.811)"/><path class="c" d="M167.75,132.49H99.226a3.956,3.956,0,0,1-3.956-3.956V99.686a3.956,3.956,0,0,1,3.956-3.956H167.75a3.956,3.956,0,0,1,3.956,3.956v28.9a3.956,3.956,0,0,1-3.956,3.9ZM99.226,96.709A2.926,2.926,0,0,0,96.3,99.635v28.9a2.926,2.926,0,0,0,2.926,2.926H167.75a2.926,2.926,0,0,0,2.926-2.926V99.686a2.926,2.926,0,0,0-2.926-2.926Z" transform="translate(0.891 1.617)"/><circle class="c" cx="9.571" cy="9.571" r="9.571" transform="translate(104.485 106.139)"/><path class="c" d="M161.849,109.15h-30.4a.515.515,0,0,1,0-1.03h30.4a.515.515,0,0,1,0,1.03Z" transform="translate(1.97 1.995)"/><path class="c" d="M161.849,114.08h-30.4a.515.515,0,0,1,0-1.03h30.4a.515.515,0,0,1,0,1.03Z" transform="translate(1.97 2.148)"/><path class="c" d="M151.288,119.03H131.445a.515.515,0,0,1,0-1.03h19.843a.515.515,0,0,1,0,1.03Z" transform="translate(1.97 2.302)"/><path class="b" d="M72.942,115.009a3.421,3.421,0,0,0-2.411-2.6,2.061,2.061,0,0,0-1.638.185,2.2,2.2,0,0,0-.742,2.061,4.667,4.667,0,0,0,1.494,3.091,4.616,4.616,0,0,0,3.194,1.216" transform="translate(0.068 2.127)"/><path class="b" d="M293.068,163.332l1.906-.052a4.224,4.224,0,0,1,3.977,2.38l37.183,102.729c.495,1.36-.495,2.5-2.2,2.555l-1.9.051a4.265,4.265,0,0,1-3.987-2.38L290.894,165.876C290.409,164.516,291.388,163.373,293.068,163.332Z" transform="translate(6.81 3.798)"/><path class="a" d="M331.965,271.525a4.719,4.719,0,0,1-4.358-2.72L290.425,166.1a2.246,2.246,0,0,1,.216-2.061,3,3,0,0,1,2.462-1.164l1.9-.052a4.791,4.791,0,0,1,4.482,2.71l37.183,102.739a2.236,2.236,0,0,1-.216,2.061,2.988,2.988,0,0,1-2.452,1.164l-1.906.051ZM293.134,163.861a1.988,1.988,0,0,0-1.638.711,1.226,1.226,0,0,0-.1,1.144l37.183,102.739a3.792,3.792,0,0,0,3.482,2.061l1.906-.052a2.061,2.061,0,0,0,1.638-.721,1.226,1.226,0,0,0,.093-1.144L298.512,165.859a3.73,3.73,0,0,0-3.482-2.061l-1.9.052Zm0-.515Z" transform="translate(6.794 3.784)"/><path class="b" d="M296.106,171.27l-34.535.587a3.245,3.245,0,0,1-3.019-1.8h0c-.371-1.03.381-1.9,1.669-1.927l34.535-.587a3.225,3.225,0,0,1,3.019,1.8h0C298.167,170.373,297.425,171.239,296.106,171.27Z" transform="translate(5.831 3.845)"/><path class="a" d="M261.524,172.388a3.719,3.719,0,0,1-3.421-2.143,1.813,1.813,0,0,1,.185-1.69,2.37,2.37,0,0,1,1.958-.927L294.782,167a3.678,3.678,0,0,1,3.513,2.143,1.813,1.813,0,0,1-.175,1.679,2.359,2.359,0,0,1-1.957.938h0l-34.535.587Zm33.35-4.358h-.062l-34.545.587a1.37,1.37,0,0,0-1.133.484.824.824,0,0,0-.062.752,2.7,2.7,0,0,0,2.524,1.463l34.535-.587a1.37,1.37,0,0,0,1.133-.484.793.793,0,0,0,.062-.752,2.71,2.71,0,0,0-2.452-1.463Zm1.267,3.214Z" transform="translate(5.817 3.829)"/><path class="b" d="M301.166,185.18l-34.535.587a3.225,3.225,0,0,1-3.019-1.8h0c-.371-1.03.371-1.9,1.669-1.927l34.535-.587a3.245,3.245,0,0,1,3.019,1.8h0C303.165,184.283,302.454,185.108,301.166,185.18Z" transform="translate(5.984 4.278)"/><path class="a" d="M266.554,186.3a3.709,3.709,0,0,1-3.41-2.143,1.813,1.813,0,0,1,.175-1.679,2.37,2.37,0,0,1,1.968-.938l34.535-.587a3.74,3.74,0,0,1,3.513,2.143,1.844,1.844,0,0,1-.175,1.69,2.4,2.4,0,0,1-1.968.927h0l-34.535.587Zm33.36-4.265h-.072l-34.535.587a1.36,1.36,0,0,0-1.133.484.793.793,0,0,0-.062.752,2.689,2.689,0,0,0,2.524,1.463l34.535-.587a1.36,1.36,0,0,0,1.133-.484.824.824,0,0,0,.062-.752,2.73,2.73,0,0,0-2.452-1.463Zm1.267,3.214Z" transform="translate(5.969 4.263)"/><path class="b" d="M306.2,199.11l-34.535.577a3.225,3.225,0,0,1-3.019-1.793h0c-.371-1.03.381-1.9,1.669-1.937l34.535-.577a3.2,3.2,0,0,1,3.019,1.8h0C308.236,198.2,307.495,199.11,306.2,199.11Z" transform="translate(6.137 4.711)"/><path class="a" d="M271.594,200.217a3.719,3.719,0,0,1-3.421-2.143,1.8,1.8,0,0,1,.185-1.69,2.4,2.4,0,0,1,1.958-.938l34.535-.577a3.688,3.688,0,0,1,3.513,2.143,1.813,1.813,0,0,1-.175,1.679,2.39,2.39,0,0,1-1.957.938h0l-34.535.577Zm33.35-4.317h-.062l-34.545.577a1.432,1.432,0,0,0-1.133.484.814.814,0,0,0-.052.762,2.658,2.658,0,0,0,2.514,1.453L306.2,198.6a1.4,1.4,0,0,0,1.133-.484.793.793,0,0,0,.062-.752,2.71,2.71,0,0,0-2.452-1.463Zm1.267,3.214Z" transform="translate(6.121 4.696)"/><path class="b" d="M311.236,213.01,276.7,213.6a3.225,3.225,0,0,1-3.019-1.8h0c-.371-1.03.371-1.9,1.669-1.927l34.535-.587a3.235,3.235,0,0,1,3.019,1.8h0C313.276,212.082,312.524,212.979,311.236,213.01Z" transform="translate(6.289 5.144)"/><path class="a" d="M276.624,214.157a3.709,3.709,0,0,1-3.41-2.143,1.844,1.844,0,0,1,.175-1.69,2.39,2.39,0,0,1,1.968-.927l34.535-.587a3.7,3.7,0,0,1,3.513,2.143,1.813,1.813,0,0,1-.175,1.679,2.38,2.38,0,0,1-1.968.938h0l-34.535.587Zm33.36-4.317h-.072l-34.535.587a1.36,1.36,0,0,0-1.133.484.793.793,0,0,0-.062.752,2.7,2.7,0,0,0,2.524,1.463l34.535-.587a1.36,1.36,0,0,0,1.133-.484.824.824,0,0,0,.062-.752,2.72,2.72,0,0,0-2.452-1.494Zm1.267,3.214Z" transform="translate(6.274 5.13)"/><path class="b" d="M316.266,226.93l-34.535.577a3.2,3.2,0,0,1-3.008-1.8h0c-.381-1.03.371-1.885,1.659-1.927l34.535-.577a3.2,3.2,0,0,1,3.019,1.793h0C318.306,226.023,317.564,226.888,316.266,226.93Z" transform="translate(6.442 5.577)"/><path class="a" d="M281.664,228.037a3.7,3.7,0,0,1-3.41-2.143,1.762,1.762,0,0,1,.175-1.679,2.37,2.37,0,0,1,1.958-.938l34.535-.577a3.688,3.688,0,0,1,3.513,2.133,1.834,1.834,0,0,1-.175,1.69,2.421,2.421,0,0,1-1.958.938h0l-34.535.577Zm33.35-4.317h-.062l-34.545.577a1.432,1.432,0,0,0-1.133.484.824.824,0,0,0-.052.752A2.679,2.679,0,0,0,281.736,227l34.535-.577a1.4,1.4,0,0,0,1.133-.484.814.814,0,0,0,.062-.762,2.71,2.71,0,0,0-2.452-1.453Zm1.267,3.225Z" transform="translate(6.426 5.562)"/><path class="b" d="M321.306,240.84l-34.535.587a3.225,3.225,0,0,1-3.019-1.8h0c-.371-1.03.371-1.9,1.669-1.927l34.535-.587a3.235,3.235,0,0,1,3.019,1.8h0C323.346,239.943,322.594,240.809,321.306,240.84Z" transform="translate(6.594 6.034)"/><path class="a" d="M286.694,241.957a3.709,3.709,0,0,1-3.41-2.143,1.834,1.834,0,0,1,.175-1.69,2.39,2.39,0,0,1,1.968-.927l34.535-.587a3.719,3.719,0,0,1,3.513,2.143,1.813,1.813,0,0,1-.175,1.679,2.38,2.38,0,0,1-1.968.938h0l-34.535.587Zm33.391-4.317h-.072l-34.535.587a1.36,1.36,0,0,0-1.133.484.793.793,0,0,0-.062.752,2.689,2.689,0,0,0,2.524,1.463l34.535-.587a1.381,1.381,0,0,0,1.133-.484.824.824,0,0,0,.062-.752,2.72,2.72,0,0,0-2.452-1.463Zm1.267,3.214Z" transform="translate(6.579 6.018)"/><path class="b" d="M326.336,254.75l-34.525.587a3.225,3.225,0,0,1-3.019-1.8h0c-.381-1.03.371-1.9,1.659-1.927l34.535-.587a3.225,3.225,0,0,1,3.019,1.8h0C328.376,253.853,327.634,254.719,326.336,254.75Z" transform="translate(6.747 6.455)"/><path class="a" d="M291.734,255.867a3.7,3.7,0,0,1-3.41-2.143,1.783,1.783,0,0,1,.175-1.679,2.349,2.349,0,0,1,1.957-.938l34.535-.587a3.709,3.709,0,0,1,3.513,2.143,1.834,1.834,0,0,1-.175,1.69,2.38,2.38,0,0,1-1.958.927h0l-34.535.587Zm33.35-4.317h-.062l-34.545.587a1.37,1.37,0,0,0-1.133.484.824.824,0,0,0-.051.752,2.668,2.668,0,0,0,2.514,1.463l34.535-.587a1.339,1.339,0,0,0,1.133-.484.793.793,0,0,0,.062-.752A2.71,2.71,0,0,0,325.084,251.55Zm1.267,3.214Z" transform="translate(6.731 6.44)"/><path class="b" d="M256.979,164l1.9-.062a4.265,4.265,0,0,1,3.987,2.38l37.183,102.739c.484,1.36-.495,2.5-2.2,2.545h-1.906a4.224,4.224,0,0,1-3.977-2.37L254.774,166.5C254.279,165.156,255.268,164,256.979,164Z" transform="translate(5.716 3.818)"/><path class="a" d="M295.845,272.2a4.719,4.719,0,0,1-4.358-2.71L254.3,166.706a2.236,2.236,0,0,1,.216-2.061,2.977,2.977,0,0,1,2.452-1.154h0l1.906-.052a4.708,4.708,0,0,1,4.482,2.71l37.183,102.739a2.246,2.246,0,0,1-.216,2.061,3,3,0,0,1-2.462,1.164h-1.9ZM257,164.543a1.968,1.968,0,0,0-1.628.711,1.2,1.2,0,0,0-.1,1.144l37.183,102.708a3.74,3.74,0,0,0,3.482,2.061h1.9a1.978,1.978,0,0,0,1.638-.711,1.226,1.226,0,0,0,.1-1.144L262.392,166.572a3.719,3.719,0,0,0-3.482-2.061Z" transform="translate(5.701 3.803)"/><path class="b" d="M283.778,105.765c-7.408,4.3-15.98,7.655-24.675,5.965-7.377-1.422-14.032-6.347-16.649-13.476-.525-1.4-.855-2.874-1.411-4.276-.227-.556-.577-1.175-1.175-1.226-.968-.082-1.3,1.257-1.185,2.215.093.773.185,1.484.206,2.246,0,.525,0,1.9.464,2.287l-6.594-6.388a2.586,2.586,0,0,0-1.133-.752.886.886,0,0,0-1.092.567,1.278,1.278,0,0,0,.392,1.03l2.627,3.39a45.762,45.762,0,0,0-3.637-2.823c-1.69-1.164-2.215.546-1.216,1.834l2.668,3.431a24.153,24.153,0,0,0-2.844-2.493c-.3-.227-.7-.443-1.03-.237a.618.618,0,0,0-.175.68,1.71,1.71,0,0,0,.412.628l2.483,2.833c-.433-.433-2.576-2.452-3.153-1.35-.33.628.9,1.628,1.267,2,2.421,2.37,4.873,4.636,7.377,6.872,6.728,6.017,14.424,11.591,23.5,13.641,9.942,2.256,20.863-.309,29.239-6.048" transform="translate(4.879 1.509)"/><text class="e" transform="translate(207.192 91.908)"><tspan x="0" y="0">register</tspan></text><path class="c" d="M266.608,123.655a34,34,0,0,1-7.531-.824c-10.035-2.277-18.349-8.943-23.7-13.754-2.771-2.483-5.151-4.739-7.377-6.893l-.175-.155c-.628-.587-1.669-1.556-1.2-2.452a1.03,1.03,0,0,1,.793-.587h.206l-.268-.3a2.4,2.4,0,0,1-.515-.814,1.133,1.133,0,0,1,.381-1.257,1.03,1.03,0,0,1,.958-.113,2.061,2.061,0,0,1-.134-2.534c.185-.2.886-.762,2.153.113l.392.278-.082-.1a1.824,1.824,0,0,1-.484-1.391,1.2,1.2,0,0,1,.536-.773,1.515,1.515,0,0,1,1.174-.206,3.09,3.09,0,0,1,1.37.886l5.3,5.151V97.3a17.935,17.935,0,0,0-.155-1.813L238.2,95.1a3.091,3.091,0,0,1,.628-2.37,1.36,1.36,0,0,1,1.113-.422c.68.062,1.226.587,1.607,1.556.309.762.546,1.556.783,2.318s.4,1.319.639,1.968c2.483,6.635,8.737,11.673,16.32,13.146,7.119,1.391,15.073-.546,24.315-5.9a.515.515,0,1,1,.515.886c-9.468,5.491-17.649,7.459-25.025,6.027-7.933-1.535-14.486-6.831-17.092-13.8-.247-.67-.453-1.35-.659-2.061s-.464-1.515-.752-2.236c-.155-.4-.412-.876-.742-.907a.34.34,0,0,0-.288.113,2.133,2.133,0,0,0-.33,1.535v.381c.072.639.144,1.247.165,1.9,0,1.556.247,1.875.3,1.937a.494.494,0,0,1,0,.721.5.5,0,0,1-.721,0h0l-6.594-6.377a2.308,2.308,0,0,0-.886-.628.577.577,0,0,0-.392.072.165.165,0,0,0-.082.1,1.376,1.376,0,0,0,.289.556l2.637,3.4a.515.515,0,0,1-.742.7A43.134,43.134,0,0,0,229.6,94.92c-.422-.288-.721-.34-.814-.247a1.387,1.387,0,0,0,.3,1.339l2.668,3.431a.515.515,0,0,1-.062.711.525.525,0,0,1-.711,0,23.951,23.951,0,0,0-2.782-2.442.927.927,0,0,0-.412-.216s0,0,0,.1a1.5,1.5,0,0,0,.3.433l2.493,2.833a.515.515,0,0,1,0,.711.525.525,0,0,1-.721,0,4.561,4.561,0,0,0-2.287-1.515c-.062.134,0,.433.938,1.257l.185.185c2.184,2.143,4.6,4.379,7.356,6.851,5.3,4.739,13.476,11.333,23.274,13.517,9.468,2.153,20.245-.082,28.848-5.965a.515.515,0,1,1,.587.845A39.593,39.593,0,0,1,266.608,123.655Z" transform="translate(4.864 1.495)"/><path class="b" d="M316.007,215.17l.927,6.79s-18.9,1.958-18.164.33a70.531,70.531,0,0,1,4.554-6.82" transform="translate(7.051 5.33)"/><path class="c" d="M302.773,223.459c-2.339,0-4.049-.175-4.389-.659a.7.7,0,0,1-.072-.711,70.458,70.458,0,0,1,4.616-6.913.525.525,0,0,1,.721-.1.515.515,0,0,1,.1.721c0,.052-3.431,4.647-4.368,6.45,1.566.474,9.54,0,16.989-.721l-.865-6.274a.519.519,0,1,1,1.03-.134l.938,6.79a.525.525,0,0,1-.1.392.546.546,0,0,1-.361.2C312.849,222.923,306.843,223.459,302.773,223.459Z" transform="translate(7.036 5.314)"/><path class="b" d="M290.316,189.924s3.946,4.956,3.225,5.862-21.636,1.937-20.739-.237,6.5-6.8,6.5-6.8" transform="translate(6.265 4.507)"/><path class="c" d="M281.048,197.378c-3.781,0-7.212-.237-8.242-.855a.9.9,0,0,1-.474-1.164c.938-2.267,6.408-6.8,6.645-7a.517.517,0,1,1,.649.8c-1.494,1.226-5.471,4.75-6.295,6.48,1.607,1.175,17.875.608,19.792-.185,0-.649-1.422-2.957-3.2-5.2a.5.5,0,0,1,.072-.721.525.525,0,0,1,.731.082c1.916,2.411,4.028,5.491,3.225,6.5C293.4,196.822,286.787,197.378,281.048,197.378Z" transform="translate(6.249 4.492)"/><path class="c" d="M283.365,138.39s-23.6,14.651-23.3,22.573c.2,5.378,16.711,32.392,16.711,32.392l15.835-.876s-14.424-22.038-11.24-25.262S302.24,155.1,302.24,155.1l.319,63.352s16.165-1.133,16.165-2.05,3.493-75.324,3.493-75.324Z" transform="translate(5.88 2.978)"/><path class="b" d="M316.67,72.573a4.276,4.276,0,0,0-1.164-2.627,2.061,2.061,0,0,0-2.658-.155c.124-1.751-1.463-3.091-3.008-3.967a20.214,20.214,0,0,0-6.182-2.184,27.818,27.818,0,0,0-4.327-.361c-2.174,0-4.492.134-6.182,1.463a6.934,6.934,0,0,0-2.061,7.078,14.073,14.073,0,0,0,4.121,6.511,19.576,19.576,0,0,0,7.974,5.069,21,21,0,0,0,5.543.783c3,.1,4.3-1.308,5.831-3.6A11.2,11.2,0,0,0,316.67,72.573Z" transform="translate(6.811 0.584)"/><path class="c" d="M308.951,84.724h-.3a21.894,21.894,0,0,1-5.677-.8,20.152,20.152,0,0,1-8.242-5.151,14.547,14.547,0,0,1-4.265-6.759,7.459,7.459,0,0,1,2.267-7.614c1.875-1.442,4.358-1.607,6.542-1.566a27.1,27.1,0,0,1,4.4.371,20.533,20.533,0,0,1,6.377,2.236c1.113.608,2.854,1.824,3.214,3.575a2.74,2.74,0,0,1,2.555.618,4.781,4.781,0,0,1,1.329,2.936h0c.4,2.792-.33,5.45-2.287,8.366C313.464,83.054,312.094,84.724,308.951,84.724ZM298.824,63.8a8.737,8.737,0,0,0-5.4,1.36c-2.061,1.576-2.421,4.43-1.906,6.553a13.651,13.651,0,0,0,3.987,6.274,19.05,19.05,0,0,0,7.768,4.935,20.3,20.3,0,0,0,5.409.762c2.6.093,3.771-.968,5.378-3.369a10.6,10.6,0,0,0,2.122-7.655h0a3.719,3.719,0,0,0-1.03-2.318,1.535,1.535,0,0,0-1.958-.165.484.484,0,0,1-.567.093.5.5,0,0,1-.3-.495c.113-1.659-1.669-2.9-2.741-3.482a19.4,19.4,0,0,0-6.058-2.133,26.425,26.425,0,0,0-4.245-.35Z" transform="translate(6.792 0.57)"/><path class="b" d="M309.364,100.266c-.361-7.779,1.216-23.552,1.216-23.552s-9.911.567-13.249-4.2c-4.121,3.2-4.914,12.209-4.173,14.9,1.484,5.327,8.386,4.121,8.386,4.121l-.886,9.726Z" transform="translate(6.874 0.863)"/><path class="c" d="M300.673,101.816a.536.536,0,0,1-.361-.144.556.556,0,0,1-.154-.412l.834-9.108c-1.844.144-7.016.093-8.314-4.585-.793-2.854.082-12.1,4.348-15.454a.556.556,0,0,1,.4-.1.5.5,0,0,1,.34.216c3.091,4.471,12.693,3.977,12.8,3.977a.484.484,0,0,1,.4.155.5.5,0,0,1,.134.412c0,.155-1.556,15.825-1.205,23.47a.5.5,0,0,1-.453.536l-8.706,1.03Zm.886-10.756a.526.526,0,0,1,.35.134.546.546,0,0,1,.165.422l-.824,9.1,7.6-.9c-.247-6.985.9-19.689,1.164-22.553-2.153,0-9.52-.124-12.745-3.987-3.627,3.369-4.234,11.725-3.606,14.012,1.339,4.8,7.542,3.822,7.81,3.781Z" transform="translate(6.859 0.848)"/><path class="c" d="M301.305,91.052s2.854-.361,4.265-1.772c0,0-1.885,4.719-4.791,5.419Z" transform="translate(7.113 1.409)"/><path class="c" d="M300.794,95.187a.433.433,0,0,1-.309-.124.474.474,0,0,1-.154-.412l.525-3.657a.464.464,0,0,1,.4-.392s2.72-.361,4-1.638a.484.484,0,0,1,.6-.062.474.474,0,0,1,.175.567c-.082.206-2.009,4.945-5.151,5.7Zm.948-3.709L301.371,94a8.459,8.459,0,0,0,3.019-3.338,11.136,11.136,0,0,1-2.648.814Z" transform="translate(7.099 1.395)"/><path class="d" d="M295.965,94.57,273.35,106.933l5.471,15.9s28.446-15.052,28.631-19.122S295.965,94.57,295.965,94.57Z" transform="translate(6.282 1.579)"/><path class="d" d="M282.11,140.173s1.082-16.186,3.091-28.518c.865-5.244.536-8.912,2.277-11.745,5.821-9.52,28.508-6.676,31.8-.072s2.267,42.592,2.267,42.592Z" transform="translate(6.547 1.56)"/><path class="b" d="M308.49,82.079a3.4,3.4,0,0,1,2.411-2.586,1.988,1.988,0,0,1,1.628.185,2.2,2.2,0,0,1,.752,2.009,4.636,4.636,0,0,1-4.688,4.3" transform="translate(7.346 1.072)"/><path class="c" d="M308.671,86.462H308.6a.515.515,0,0,1-.5-.525.5.5,0,0,1,.525-.5,3.956,3.956,0,0,0,2.833-1.03,4.121,4.121,0,0,0,1.329-2.741,1.813,1.813,0,0,0-.525-1.545,1.473,1.473,0,0,0-1.205-.1A2.9,2.9,0,0,0,308.99,82.2a.514.514,0,1,1-1.01-.2,3.915,3.915,0,0,1,2.782-2.988,2.452,2.452,0,0,1,2.061.258,2.627,2.627,0,0,1,.958,2.462,5.151,5.151,0,0,1-5.151,4.78Z" transform="translate(7.33 1.056)"/><ellipse class="c" cx="0.886" cy="0.474" rx="0.886" ry="0.474" transform="translate(303.161 79.15) rotate(-72.67)"/><path class="b" d="M294.85,87.371a7.212,7.212,0,0,0,2,.876,2.771,2.771,0,0,0,2.771-.484,3.6,3.6,0,0,0,.587-1.113" transform="translate(6.933 1.291)"/><path class="c" d="M297.966,88.932a4.863,4.863,0,0,1-1.236-.165,7.964,7.964,0,0,1-2.143-.948.515.515,0,0,1-.155-.711.5.5,0,0,1,.711-.155,6.779,6.779,0,0,0,1.854.814c.371.093,1.628.361,2.256-.33a3.213,3.213,0,0,0,.484-.958.517.517,0,0,1,.969.361,3.832,3.832,0,0,1-.69,1.288A2.71,2.71,0,0,1,297.966,88.932Z" transform="translate(6.918 1.276)"/><path class="b" d="M294.893,78.32s-3.977,4.533-3.008,5.512,3.287.484,3.287.484" transform="translate(6.839 1.039)"/><path class="c" d="M293.918,84.979a3.359,3.359,0,0,1-2.38-.773c-1.144-1.144,1.381-4.389,2.978-6.182a.525.525,0,0,1,.732,0,.515.515,0,0,1,0,.731c-1.8,2.061-3.235,4.358-3.008,4.822.628.618,2.236.453,2.8.34a.525.525,0,0,1,.206,1.03,6.4,6.4,0,0,1-1.329.031Z" transform="translate(6.824 1.026)"/><path class="c" d="M278.675,122.839a.5.5,0,0,1-.453-.268.525.525,0,0,1,.206-.7c.155-.082,15.8-8.438,21.5-11.529a.514.514,0,1,1,.484.907c-5.7,3.091-21.337,11.446-21.5,11.529a.474.474,0,0,1-.237.062Z" transform="translate(6.428 2.065)"/><line class="b" x1="39.841" y2="32.68" transform="translate(146.953 170.039)"/><path class="a" d="M144.584,199.388a.478.478,0,0,1-.3-.845l39.892-32.68a.484.484,0,0,1,.67.062.474.474,0,0,1-.072.67l-39.83,32.68a.5.5,0,0,1-.361.113Z" transform="translate(2.369 3.805)"/><line class="b" x2="39.841" y2="32.68" transform="translate(146.953 170.039)"/><path class="a" d="M184.425,199.388a.474.474,0,0,1-.3-.113l-39.841-32.68a.474.474,0,0,1-.062-.67.484.484,0,0,1,.67-.062l39.83,32.68a.474.474,0,0,1,.072.67.494.494,0,0,1-.371.175Z" transform="translate(2.369 3.805)"/><path class="b" d="M301.016,155.3a.5.5,0,0,1-.247-.958c.062,0,5.43-2.9,6.789-5.481a.514.514,0,0,1,.907.484c-1.5,2.864-6.985,5.78-7.212,5.9a.659.659,0,0,1-.237.051Z" transform="translate(7.104 3.256)"/><path class="b" d="M74.823,212.62a.5.5,0,0,1-.453-.268c-1.988-3.688-8.3-12.034-8.366-12.116a.515.515,0,1,1,.814-.618c.258.34,6.429,8.489,8.459,12.25a.5.5,0,0,1-.216.69.474.474,0,0,1-.237.062Z" transform="translate(0 4.841)"/></g></svg>