<svg xmlns="http://www.w3.org/2000/svg" width="389" height="185" viewBox="0 0 389 185"><defs><style>.a{fill:#fff;}.b{fill:#231f20;}.c{fill:none;}.d{fill:#68b64d;}.e{fill:#d1d3d4;}</style></defs><g transform="translate(-696.902 -167)"><g transform="translate(844.031 167)"><path class="a" d="M283.968,52.567V174.091a9.208,9.208,0,0,1-9.208,9.217H77.1a9.208,9.208,0,0,1-9.208-9.217V52.567A9.217,9.217,0,0,1,77.1,43.35H274.76A9.217,9.217,0,0,1,283.968,52.567Z" transform="translate(-54.993 -42.941)"/><path class="b" d="M274.669,183.634H77.007a9.625,9.625,0,0,1-9.617-9.625V52.475a9.625,9.625,0,0,1,9.617-9.625H274.669a9.625,9.625,0,0,1,9.617,9.625V174a9.625,9.625,0,0,1-9.617,9.634ZM77.007,43.668a8.816,8.816,0,0,0-8.8,8.808V174a8.816,8.816,0,0,0,8.8,8.816H274.669a8.816,8.816,0,0,0,8.8-8.808V52.475a8.816,8.816,0,0,0-8.8-8.808Z" transform="translate(-54.902 -42.85)"/><path class="c" d="M283.968,52.567V59.15H67.89V52.567A9.217,9.217,0,0,1,77.1,43.35H274.76A9.217,9.217,0,0,1,283.968,52.567Z" transform="translate(-54.993 -42.941)"/><path class="b" d="M283.888,59.429H67.81a.36.36,0,0,1-.36-.36V52.486a9.585,9.585,0,0,1,9.568-9.576H274.68a9.585,9.585,0,0,1,9.568,9.576V59.07A.36.36,0,0,1,283.888,59.429ZM68.17,58.71H283.528V52.486a8.865,8.865,0,0,0-8.849-8.857H77.018a8.865,8.865,0,0,0-8.849,8.857Z" transform="translate(-54.913 -42.861)"/><path class="d" d="M155.852,59.84l-7.8-12.7H106.441l-8.734,12.7H67.89V79.206H283.968V59.84Z" transform="translate(-54.993 -43.632)"/><path class="b" d="M283.877,79.524H67.8a.409.409,0,0,1-.409-.409V59.749a.409.409,0,0,1,.409-.409H97.4l8.611-12.52a.4.4,0,0,1,.335-.18h41.609a.409.409,0,0,1,.352.2l7.679,12.5H283.877a.409.409,0,0,1,.409.409V79.115A.409.409,0,0,1,283.877,79.524ZM68.208,78.706h215.26V60.158H155.761a.425.425,0,0,1-.352-.2l-7.679-12.5H106.562L97.951,60.019a.4.4,0,0,1-.335.18H68.175Z" transform="translate(-54.902 -43.541)"/><circle class="d" cx="2.208" cy="2.208" r="2.208" transform="translate(20.69 6.101)"/><circle class="a" cx="2.208" cy="2.208" r="2.208" transform="translate(28.116 6.101)"/><circle class="a" cx="2.208" cy="2.208" r="2.208" transform="translate(35.542 6.101)"/><rect class="a" width="163.731" height="18.081" transform="translate(41.675 75.501)"/><path class="b" d="M266.72,153.139H102.989a.409.409,0,0,1-.409-.409V134.649a.409.409,0,0,1,.409-.409H266.72a.409.409,0,0,1,.409.409V152.73A.409.409,0,0,1,266.72,153.139ZM103.4,152.321H266.311V135.058H103.4Z" transform="translate(-61.314 -59.148)"/><path class="b" d="M277.038,153.143h0a.409.409,0,0,1-.409-.417c.082-6.747.155-16.986,0-17.918a.474.474,0,0,1,0-.155.425.425,0,0,1,.7-.286c.155.155.327.335.115,18.376a.4.4,0,0,1-.409.4Z" transform="translate(-93.025 -59.152)"/><rect class="a" width="169.472" height="10.509" rx="5.254" transform="translate(41.675 20.764)"/><path class="e" d="M300.664,76.147a.434.434,0,0,1-.245-.074.417.417,0,0,1-.164-.4l.3-1.758-1.276-1.251a.4.4,0,0,1-.106-.417.417.417,0,0,1,.335-.278l1.766-.254.818-1.636a.417.417,0,0,1,.368-.229h0a.417.417,0,0,1,.368.229l.818,1.636,1.766.254a.417.417,0,0,1,.335.278.4.4,0,0,1-.106.417l-1.276,1.251.3,1.758a.417.417,0,0,1-.164.4.434.434,0,0,1-.433,0l-1.578-.818-1.578.818a.483.483,0,0,1-.254.074Zm-.221-3.492.818.818a.409.409,0,0,1,.114.368l-.2,1.153,1.039-.548a.433.433,0,0,1,.376,0l1.039.548-.2-1.153a.409.409,0,0,1,.115-.368l.818-.818-1.161-.164a.442.442,0,0,1-.311-.229l-.515-1.047-.515,1.047a.442.442,0,0,1-.311.229Z" transform="translate(-97.131 -47.77)"/><path class="b" d="M324.462,70.708h-6.133a.409.409,0,1,1,0-.818h6.133a.409.409,0,0,1,0,.818Z" transform="translate(-100.55 -47.777)"/><path class="b" d="M324.462,74.038h-6.133a.409.409,0,0,1-.409-.409.417.417,0,0,1,.409-.409h6.133a.409.409,0,0,1,0,.818Z" transform="translate(-100.55 -48.384)"/><path class="b" d="M324.462,77.368h-6.133a.409.409,0,0,1-.409-.409.417.417,0,0,1,.409-.409h6.133a.409.409,0,0,1,0,.818Z" transform="translate(-100.55 -48.99)"/><path class="e" d="M183.719,57.51a.409.409,0,0,1-.409-.409V50.649a.409.409,0,0,1,.818,0V57.1A.409.409,0,0,1,183.719,57.51Z" transform="translate(-76.023 -44.196)"/><path class="e" d="M186.23,55.008h-6.461a.409.409,0,1,1,0-.818h6.461a.409.409,0,0,1,.409.409A.417.417,0,0,1,186.23,55.008Z" transform="translate(-75.304 -44.916)"/><path class="b" d="M80.193,75.748H74.379a.409.409,0,1,1,0-.818h5.815a.417.417,0,0,1,.409.409A.409.409,0,0,1,80.193,75.748Z" transform="translate(-56.101 -48.695)"/><path class="b" d="M75.8,77.859a.417.417,0,0,1-.319-.155L73.269,74.98a.409.409,0,0,1,0-.523l2.388-2.789a.409.409,0,0,1,.622.532l-2.167,2.527,2,2.453a.4.4,0,0,1-.065.572A.384.384,0,0,1,75.8,77.859Z" transform="translate(-55.956 -48.075)"/><path class="b" d="M91.183,75.748H85.369a.409.409,0,1,1,0-.818h5.815a.417.417,0,0,1,.409.409A.409.409,0,0,1,91.183,75.748Z" transform="translate(-58.104 -48.695)"/><path class="b" d="M90.524,77.857a.417.417,0,0,1-.262-.1.409.409,0,0,1-.057-.572l2-2.453-2.167-2.527a.4.4,0,0,1,0-.572.417.417,0,0,1,.581,0L93,74.422a.417.417,0,0,1,0,.523l-2.208,2.723a.425.425,0,0,1-.27.188Z" transform="translate(-59.006 -48.073)"/><path class="b" d="M287.856,147.043a3.966,3.966,0,1,1,2.805-1.161,3.966,3.966,0,0,1-2.805,1.161Zm0-7.1a3.132,3.132,0,0,0-2.216,5.357,3.206,3.206,0,0,0,4.441,0,3.14,3.14,0,0,0-2.224-5.357Z" transform="translate(-94.35 -60.041)"/><path class="b" d="M295.759,151.389a.417.417,0,0,1-.294-.123l-4.032-4.032a.409.409,0,0,1,0-.581.417.417,0,0,1,.581,0l4.032,4.032a.417.417,0,0,1,0,.581A.409.409,0,0,1,295.759,151.389Z" transform="translate(-95.702 -61.374)"/><path class="e" d="M177.248,146.118H112.789a.417.417,0,0,1-.409-.409.409.409,0,0,1,.409-.409h64.459a.409.409,0,0,1,0,.818Z" transform="translate(-63.1 -61.161)"/><g transform="translate(0 55.29)"><path class="e" d="M52.529,239.628H293.582a.409.409,0,0,0,0-.818H52.529a.409.409,0,1,0,0,.818Z" transform="translate(-52.12 -133.105)"/><rect class="a" width="6.73" height="9.274" transform="matrix(-0.6, 0.8, -0.8, -0.6, 195.134, 30.981)"/><path class="b" d="M116.594,152.59a.392.392,0,0,0,.327-.164l4.04-5.381a.417.417,0,0,0-.082-.572l-7.426-5.561a.409.409,0,0,0-.572.082l-4.032,5.381a.409.409,0,0,0-.082.3.393.393,0,0,0,.164.27l7.417,5.561A.4.4,0,0,0,116.594,152.59Zm3.467-5.725-3.549,4.735-6.763-5.07,3.541-4.743Z" transform="translate(74.509 -115.823)"/><rect class="b" width="4.432" height="11.335" transform="matrix(-0.6, 0.8, -0.8, -0.6, 203.524, 38.732)"/><path class="b" d="M108,159.883a.36.36,0,0,0,.294-.147l2.658-3.549a.343.343,0,0,0,.065-.27.36.36,0,0,0-.139-.237l-9.069-6.8a.36.36,0,0,0-.507.074l-2.658,3.549a.344.344,0,0,0-.065.27.327.327,0,0,0,.139.237l9.069,6.8A.352.352,0,0,0,108,159.883Zm2.159-3.844-2.224,2.977-8.5-6.371,2.241-2.969Z" transform="translate(92.859 -117.234)"/><path class="d" d="M143.379,137.961a14.859,14.859,0,1,0-20.8,2.977,14.859,14.859,0,0,0,20.8-2.977Zm-26.619-19.954a18.417,18.417,0,1,1,3.688,25.777,18.417,18.417,0,0,1-3.688-25.777Z" transform="translate(42.105 -110.491)"/><path class="b" d="M131.472,147.85a19,19,0,0,0,2.707-.2,18.695,18.695,0,1,0-2.707.2Zm.057-36.8a17.992,17.992,0,1,1-14.426,7.2h0a17.992,17.992,0,0,1,14.426-7.221Zm0,33.252a15.244,15.244,0,0,0,12.267-6.1h0a15.285,15.285,0,1,0-12.267,6.1Zm11.58-6.591a20.141,20.141,0,1,0-.033-.041Z" transform="translate(42.089 -110.459)"/><path class="a" d="M95.217,179.608l1.636-2.192a2,2,0,0,0-.393-2.789L72.246,156.481a2,2,0,0,0-2.789.393l-1.636,2.2a1.987,1.987,0,0,0,.4,2.789l24.207,18.147a1.987,1.987,0,0,0,2.789-.4Z" transform="translate(132.105 -118.483)"/><path class="b" d="M93.561,180.732H93.9a2.364,2.364,0,0,0,1.578-.94l1.636-2.192a2.364,2.364,0,0,0,.458-1.783,2.388,2.388,0,0,0-.932-1.578L72.4,156.092a2.363,2.363,0,0,0-1.783-.458,2.388,2.388,0,0,0-1.578.932l-1.636,2.2a2.4,2.4,0,0,0,.483,3.361L92.121,180.25a2.453,2.453,0,0,0,1.439.482ZM70.965,156.4a1.545,1.545,0,0,1,.949.319l24.248,18.147a1.562,1.562,0,0,1,.613,1.039,1.513,1.513,0,0,1-.3,1.178l-1.636,2.192h0a1.578,1.578,0,0,1-1.039.621,1.635,1.635,0,0,1-1.178-.3L68.381,161.449a1.578,1.578,0,0,1-.319-2.216l1.636-2.2a1.562,1.562,0,0,1,1.039-.613A1.119,1.119,0,0,1,70.965,156.4Z" transform="translate(132.167 -118.397)"/><path class="a" d="M105.237,166.7l-4.49,4.637s-6.362-9.487-6.24-10.591a19.275,19.275,0,0,0-.474-5.962.45.45,0,0,0-.164-.311c-.229-.147-.474.164-.564.425-.2.622-.221,1.308-.409,1.905-1.014-.581-2-1.284-2.993-1.914-1.636-1.039-1.145,2.952-1.006,3.5a6.945,6.945,0,0,0,2.339,4.089s7.663,17.059,9.323,16.871,8.178-7.565,8.178-7.565Z" transform="translate(103.203 -118.191)"/><path class="b" d="M100.529,179.674h.049c1.726-.2,7.36-6.444,8.464-7.7a.417.417,0,0,0,0-.507l-3.533-5.095a.425.425,0,0,0-.3-.18.466.466,0,0,0-.327.123l-4.138,4.277c-2.928-4.4-5.872-9.208-5.888-9.912a20.125,20.125,0,0,0-.482-6.084.818.818,0,0,0-.343-.572.621.621,0,0,0-.564-.057,1.137,1.137,0,0,0-.605.7,6.208,6.208,0,0,0-.237,1.063.726.726,0,0,1-.057.343c-.474-.294-.949-.613-1.415-.916s-.72-.483-1.088-.712a.99.99,0,0,0-1.2-.074c-1.055.752-.433,3.983-.425,4.015a7.646,7.646,0,0,0,2.4,4.269C93.791,169.092,98.8,179.674,100.529,179.674Zm7.687-8c-2.519,2.813-6.665,7.066-7.728,7.18-1.014-.286-5.34-8.685-8.914-16.626a.458.458,0,0,0-.139-.172,6.758,6.758,0,0,1-2.175-3.86c-.18-.736-.286-2.879.106-3.157a.606.606,0,0,1,.294.1l1.071.7c.63.417,1.276.818,1.93,1.227a.442.442,0,0,0,.352,0,.433.433,0,0,0,.245-.262,7.783,7.783,0,0,0,.2-.965,5.921,5.921,0,0,1,.188-.891,18.86,18.86,0,0,1,.417,5.635c-.123,1.161,4.8,8.6,6.305,10.86a.45.45,0,0,0,.311.18.425.425,0,0,0,.327-.123l4.138-4.277Z" transform="translate(103.2 -118.1)"/><path class="a" d="M68.453,250.7s1.521,4.334.875,4.7-14.524,0-13.7-.818,4.531-3.639,4.531-3.639" transform="translate(169.542 -135.271)"/><path class="b" d="M65.913,255.876a15.809,15.809,0,0,0,3.566-.213c.654-.393.417-2.134-.7-5.193a.425.425,0,0,0-.532-.245.4.4,0,0,0-.237.523,12.973,12.973,0,0,1,1.014,4.22,73.364,73.364,0,0,1-12.807-.515c1.194-1.039,4.089-3.214,4.089-3.271a.417.417,0,0,0,.082-.572.409.409,0,0,0-.572-.082c-.155.114-3.721,2.8-4.563,3.631a.491.491,0,0,0-.049.671C55.781,255.549,61.857,255.876,65.913,255.876Z" transform="translate(169.596 -135.18)"/><path class="a" d="M70.318,148.378c.646.09,1.308.09,2.069.164s1.636,0,1.783-.728-.507-1.21-.245-1.758a1.3,1.3,0,0,1,.319-.376,6.542,6.542,0,0,0,.491-9.045.36.36,0,0,0,.482-.254.818.818,0,0,0-.123-.605,4.089,4.089,0,0,0-1.717-1.521,12.439,12.439,0,0,0-7.221-1.276c-1.905.2-4.326,1.251-4.482,3.476a1.75,1.75,0,0,0,1.2,1.848,11.185,11.185,0,0,0,2.151,6.191,9.585,9.585,0,0,0,3.32,3.271,5.423,5.423,0,0,0,1.971.613Z" transform="translate(157.749 -114.414)"/><path class="b" d="M72.681,148.88c1.006,0,1.676-.384,1.807-1.071a1.873,1.873,0,0,0-.172-1.014c-.114-.294-.172-.483-.114-.613a.981.981,0,0,1,.2-.229,6.959,6.959,0,0,0,.916-9.168.76.76,0,0,0,.2-.343,1.186,1.186,0,0,0-.155-.908,4.522,4.522,0,0,0-1.881-1.685,12.954,12.954,0,0,0-7.466-1.349c-2.29.245-4.678,1.537-4.841,3.852a2.249,2.249,0,0,0,1.2,2.175,11.793,11.793,0,0,0,2.208,6.109,9.937,9.937,0,0,0,3.476,3.4,5.586,5.586,0,0,0,2.11.7c.393.057.818.082,1.194.106a4.2,4.2,0,0,1,.891.065Zm1.963-12.717a.417.417,0,0,0-.319.155.409.409,0,0,0,0,.523,6.117,6.117,0,0,1-.458,8.472,1.758,1.758,0,0,0-.409.5,1.562,1.562,0,0,0,.082,1.251,1.227,1.227,0,0,1,.131.605c-.082.409-.883.442-1.341.4-.327,0-.63-.049-.924-.065s-.761-.049-1.129-.1h0a4.841,4.841,0,0,1-1.824-.6,9.135,9.135,0,0,1-3.181-3.124c-1.333-2.134-2.1-3.795-2.085-5.97a.409.409,0,0,0-.319-.417,1.349,1.349,0,0,1-.883-1.423c.147-2.11,2.65-2.936,4.089-3.091a12.054,12.054,0,0,1,7.017,1.243,3.574,3.574,0,0,1,1.554,1.358.516.516,0,0,1,.09.27Z" transform="translate(157.839 -114.458)"/><path class="a" d="M59.832,167.936s5.119,10.37,4.7,13.551-10.934,1.93-10.934,1.93l.548-15.767Z" transform="translate(176.102 -120.546)"/><path class="b" d="M57.809,183.988c3.116,0,6.755-.458,7.033-2.543.425-3.271-4.531-13.363-4.743-13.788a.4.4,0,0,0-.352-.229l-5.667-.278a.384.384,0,0,0-.294.106.393.393,0,0,0-.131.286L53.1,183.31a.409.409,0,0,0,.36.425,40.829,40.829,0,0,0,4.351.254Zm1.636-15.759c.728,1.5,4.907,10.329,4.563,13.085-.262,1.963-6.183,2.044-10.108,1.636l.532-14.982Z" transform="translate(176.203 -120.455)"/><path class="a" d="M96.45,247.318l-.27,6.73s-12.635.1-11.9-.818,6.452-4.98,6.452-4.98l.924-4.98Z" transform="translate(119.146 -133.917)"/><path class="b" d="M94.33,254.407h1.758a.409.409,0,0,0,.409-.393l.27-6.73a.393.393,0,0,0-.139-.327l-4.8-4.089a.393.393,0,0,0-.4-.074.409.409,0,0,0-.262.311l-.891,4.817c-1.006.711-5.725,4.089-6.4,4.964a.515.515,0,0,0-.074.548C83.919,253.663,84.3,254.407,94.33,254.407Zm1.366-.818a82.935,82.935,0,0,1-10.9-.458c1.137-1.071,4.67-3.631,6.044-4.645a.393.393,0,0,0,.164-.262l.818-4.285,4.089,3.467Z" transform="translate(119.238 -133.826)"/><path class="b" d="M61.547,190.35,56.64,239.524l7.769-.507,7.483-34.045L76.97,239.95l9.4-.458s-.818-22.457-1.693-29.9-.891-17.411-.891-17.411Z" transform="translate(151.8 -124.275)"/><path class="a" d="M81.509,143.49s-2.159,2.453-1.873,3.05,1.57.417,1.57.417" transform="translate(137.881 -116.306)"/><path class="b" d="M80.675,147.309a3.2,3.2,0,0,0,.507-.041.413.413,0,0,0-.123-.818c-.409.065-1.039,0-1.137-.18a9.52,9.52,0,0,1,1.807-2.609.409.409,0,0,0-.613-.54c-1.063,1.2-2.265,2.789-1.93,3.5a1.578,1.578,0,0,0,1.488.687Z" transform="translate(137.963 -116.217)"/><path class="a" d="M71.435,139.105c-1.259.769-1.2,2.772-1.374,4.04q-.36,2.691-.589,5.389c-.1,1.145,2.83,1.578,3.394,1.317l-1.088,4.408,6.542-1.5.532-5.193a3.745,3.745,0,0,1-2.764-2.731,15.633,15.633,0,0,1-.27-6.019S72.695,138.361,71.435,139.105Z" transform="translate(148.83 -115.437)"/><path class="b" d="M71.724,154.577h.1l6.542-1.5a.417.417,0,0,0,.319-.36l.5-5.2a.425.425,0,0,0-.352-.45,3.271,3.271,0,0,1-2.453-2.453,14.429,14.429,0,0,1-.262-5.823.393.393,0,0,0-.074-.3.409.409,0,0,0-.27-.164c-.335-.049-3.271-.458-4.6.343s-1.382,2.355-1.5,3.647a4.421,4.421,0,0,1-.074.687c-.237,1.783-.433,3.607-.589,5.406a1.2,1.2,0,0,0,.613,1.112,5.283,5.283,0,0,0,2.641.72h0l-.949,3.827a.409.409,0,0,0,.4.507Zm6.125-2.233L72.28,153.62l.932-3.762a.417.417,0,0,0-.572-.474,4.244,4.244,0,0,1-2.568-.54c-.18-.131-.262-.254-.254-.368.155-1.783.36-3.59.589-5.365,0-.221.057-.458.082-.711.106-1.112.237-2.5,1.1-3.034s2.65-.393,3.672-.278a14.868,14.868,0,0,0,.343,5.79,4.31,4.31,0,0,0,2.707,2.911Z" transform="translate(148.885 -115.348)"/><path class="d" d="M56.67,166.84s7.254-7.663,10.124-10.566c2.666-2.674,10.419-5.1,13.943-1.276,0,0,5.806,8.1,6.919,12.8l-3.394,2.069a154.349,154.349,0,0,1,1.317,16.814c-6.371,5.087-22.727-3.132-22.727-3.132l1.48-11.531-2.65,2.641Z" transform="translate(150.494 -117.908)"/><path class="a" d="M77.96,149.046a1.472,1.472,0,0,0,2.208-.286" transform="translate(140.571 -117.243)"/><path class="b" d="M78.932,149.765h.221a1.824,1.824,0,0,0,1.259-.818.417.417,0,0,0-.09-.572.425.425,0,0,0-.572.1,1.063,1.063,0,0,1-.7.5,1.357,1.357,0,0,1-.908-.294.425.425,0,0,0-.581.057.409.409,0,0,0,.057.572A2.249,2.249,0,0,0,78.932,149.765Z" transform="translate(140.654 -117.161)"/><path class="a" d="M71.732,145.016a2.527,2.527,0,0,1,.679-1.153,3.174,3.174,0,0,1,.761-.72,1.194,1.194,0,0,1,1.006-.164,1.112,1.112,0,0,1,.622.654,2.085,2.085,0,0,1,.1.924,3.852,3.852,0,0,1-2.249,3.149l.114-.09" transform="translate(150.921 -116.205)"/><path class="b" d="M72.6,148.032a.368.368,0,0,0,.164,0,4.253,4.253,0,0,0,2.453-3.492,2.625,2.625,0,0,0-.123-1.1,1.5,1.5,0,0,0-.867-.891,1.636,1.636,0,0,0-1.358.2,3.862,3.862,0,0,0-.818.818,2.854,2.854,0,0,0-.769,1.366.409.409,0,0,0,.343.466.425.425,0,0,0,.466-.343,2.045,2.045,0,0,1,.581-.949,3.084,3.084,0,0,1,.662-.646.818.818,0,0,1,.654-.123.687.687,0,0,1,.376.417,1.7,1.7,0,0,1,.074.736,3.492,3.492,0,0,1-1.75,2.691.45.45,0,0,0-.237.09l-.114.1a.4.4,0,0,0,.262.72Z" transform="translate(150.965 -116.123)"/><path class="b" d="M79.065,175.928a.392.392,0,0,0,.286-.131,71.522,71.522,0,0,0,5.218-6,.409.409,0,0,0-.082-.572.417.417,0,0,0-.572.082,72.654,72.654,0,0,1-5.144,5.929.4.4,0,0,0,0,.572.384.384,0,0,0,.294.123Z" transform="translate(135.525 -120.838)"/><ellipse class="b" cx="0.646" cy="0.254" rx="0.646" ry="0.254" transform="translate(220.346 26.74) rotate(-91.59)"/><path class="b" d="M63.552,169.417h.065a.417.417,0,0,0,.335-.474c-.057-.352-1.415-8.677-2.952-11.449a.4.4,0,0,0-.556-.155.393.393,0,0,0-.155.548c1.464,2.674,2.846,11.13,2.854,11.212a.409.409,0,0,0,.409.319Z" transform="translate(171.278 -118.728)"/></g><rect class="d" width="49.738" height="11.825" rx="5.29" transform="translate(95.96 110.155)"/></g><g transform="translate(696.902 212.175)"><g transform="translate(0 0)"><path class="a" d="M143.93,91.805v48.447a21.589,21.589,0,0,1-21.6,21.582H74.07l-11.329,16.4-3.1,4.475V161.834h-4.68A21.582,21.582,0,0,1,33.427,141.81c-.035-.51-.057-1.034-.057-1.558V91.805A21.568,21.568,0,0,1,54.959,70.23h67.367a21.582,21.582,0,0,1,21.6,21.575Z" transform="translate(-29.479 -56.79)"/><path class="b" d="M122.025,69.926A21.582,21.582,0,0,1,143.615,91.5v48.447a21.589,21.589,0,0,1-21.589,21.582H73.77L62.44,177.93l-3.1,4.475V161.531h-4.68a21.582,21.582,0,0,1-21.533-20.025c-.035-.51-.057-1.034-.057-1.558V91.5A21.568,21.568,0,0,1,54.659,69.926h67.367m0-.708H54.659A22.319,22.319,0,0,0,32.34,91.5v48.447a15.242,15.242,0,0,0,.057,1.614,22.382,22.382,0,0,0,22.262,20.7h3.923V182.4a.718.718,0,0,0,1.31.4l3.1-4.475,11.138-16.088h47.895a22.312,22.312,0,0,0,22.319-22.312V91.5A22.34,22.34,0,0,0,122.025,69.19Z" transform="translate(-29.178 -56.487)"/><path class="a" d="M326,109.655v48.468a21.575,21.575,0,0,1-20.237,21.511v20.924l-1.275-1.841-12.179-17.66-.956-1.374H237.029a21.589,21.589,0,0,1-21.589-21.561V109.655A21.582,21.582,0,0,1,237.029,88.08h67.388A21.575,21.575,0,0,1,326,109.655Z" transform="translate(-82.629 -62.001)"/><path class="b" d="M304.117,87.765A21.575,21.575,0,0,1,325.7,109.34v48.468a21.575,21.575,0,0,1-20.237,21.511v20.924l-1.275-1.841-12.179-17.66-.956-1.374H236.729a21.589,21.589,0,0,1-21.589-21.561V109.34a21.582,21.582,0,0,1,21.589-21.575h67.388m0-.708H236.729a22.34,22.34,0,0,0-22.319,22.312v48.44a22.34,22.34,0,0,0,22.319,22.312h53.906l.708,1.062,12.236,17.66,1.275,1.841a.708.708,0,0,0,.6.312.78.78,0,0,0,.22,0,.708.708,0,0,0,.51-.708V180a22.347,22.347,0,0,0,20.251-22.191V109.34A22.34,22.34,0,0,0,304.117,87Z" transform="translate(-82.328 -61.686)"/><path class="a" d="M41.572,95.341l.616-8.4s2.967-8.27,2.6-9.382-2.974-.234-4.206,4.567c0,0-2.124-10.989-3.087-11.237s-1.976.5-1.855,2.124a41.685,41.685,0,0,0,.743,4.44s-1.48-6.663-2.719-6.047,0,6.975,0,6.975-1.352-6.231-2.344-5.495.708,6.67.708,6.67-2.924-7.576-3.54-5.516,2.464,9.566,2.584,12.285.5,14.445.5,14.445Z" transform="translate(-28.03 -56.97)"/><path class="b" d="M31.412,100.989a.418.418,0,0,1-.184-.05.382.382,0,0,1-.184-.3c0-.12-.368-11.761-.489-14.445a29.152,29.152,0,0,0-1.232-5.169c-.885-3.066-1.728-5.969-1.36-7.258.163-.524.474-.609.651-.616h0c.566,0,1.282,1.027,1.99,2.422-.22-1.416-.241-2.74.3-3.144a.644.644,0,0,1,.616-.092c.368.135.708.708,1.041,1.466,0-1.374.127-2.577.743-2.889a.708.708,0,0,1,.666,0,3.144,3.144,0,0,1,1.147,1.522,2.266,2.266,0,0,1,.708-1.692,1.756,1.756,0,0,1,1.579-.354c.913.227,2.124,5.332,3.08,10.1.963-2.6,2.386-3.831,3.434-3.873a.991.991,0,0,1,1.034.708c.382,1.154-2.046,8.065-2.577,9.573l-.616,8.348a.361.361,0,0,1-.191.29l-10,5.431A.418.418,0,0,1,31.412,100.989Zm-2.7-27.077v.064c-.333,1.083.552,4.142,1.331,6.84a29.449,29.449,0,0,1,1.26,5.346c.106,2.33.4,11.435.474,13.857l9.3-5.056.6-8.2a.22.22,0,0,1,0-.092c1.416-4.008,2.8-8.5,2.592-9.148,0-.05-.057-.191-.319-.177-.765,0-2.308,1.331-3.179,4.723a.389.389,0,0,1-.368.276.375.375,0,0,1-.347-.3c-.963-5.042-2.3-10.536-2.9-10.975a1.041,1.041,0,0,0-.878.22,1.756,1.756,0,0,0-.467,1.522c.12,1.558.708,4.369.708,4.39a.363.363,0,0,1-.708.163c-.666-3-1.714-5.764-2.2-5.806-.595.3-.382,3.64.191,6.578a.368.368,0,1,1-.708.149c-.566-2.592-1.374-4.957-1.806-5.247-.361.453.05,3.3.906,6.238a.368.368,0,0,1-.234.453.361.361,0,0,1-.453-.212C30.6,77.035,29.273,74.295,28.714,73.912Zm12.7,21.278Z" transform="translate(-27.875 -56.819)"/><path class="a" d="M190.45,140.966s4.248-2.832,5.049-4.546.786-5.19,1.629-6.819,2.308.772,1.416,5.488c0,0,6.153-10.154,6.783-8.922s0,1.416-1.579,4.687c0,0,1.232-3.54,2.6-2.7s-2.068,5.169-2.068,5.169,2.712-3.923,3.491-2.457-2.79,5.1-2.79,5.1,3.739-4.659,3.937-2.953-4.248,7.491-13.454,14.8" transform="translate(-75.334 -73.089)"/><path class="b" d="M195.352,147.978a.326.326,0,0,1-.255-.12.319.319,0,0,1,.05-.453c9.368-7.463,13.454-13.064,13.312-14.509a.227.227,0,0,0,0-.106,6.175,6.175,0,0,0-1.933,1.614,21.234,21.234,0,0,1-1.416,1.636.326.326,0,0,1-.489-.432c.347-.425.878-1.062,1.459-1.678.906-1.182,1.622-2.457,1.3-3.059-.085-.149-.156-.156-.2-.156-.51-.042-1.416.928-2.181,1.876-.283.4-.5.708-.574.779a.326.326,0,0,1-.524-.382c.1-.142.312-.446.6-.807.892-1.267,1.855-2.939,1.721-3.668a.319.319,0,0,0-.149-.234.453.453,0,0,0-.425-.042,1.756,1.756,0,0,0-.708.637c-.283.51-.616,1.133-1.013,1.976a.323.323,0,0,1-.595-.248,8.809,8.809,0,0,1,1.062-2.124c0-.057.064-.12.1-.17.644-1.182.786-1.416.489-2.075-.843.446-3.788,4.751-6.274,8.844a.319.319,0,0,1-.389.135.333.333,0,0,1-.205-.368c.708-3.583-.042-5.466-.46-5.608-.085-.035-.234.142-.326.333a12.159,12.159,0,0,0-.807,3.349,14.217,14.217,0,0,1-.821,3.463c-.836,1.813-4.957,4.56-5.162,4.673a.322.322,0,0,1-.354-.538c.042,0,4.171-2.762,4.957-4.411a13.651,13.651,0,0,0,.758-3.285,12.674,12.674,0,0,1,.878-3.54c.4-.793.913-.708,1.112-.644.821.283,1.374,2.082,1.112,4.772,1.933-3.1,5.056-7.867,6.1-7.846a.5.5,0,0,1,.432.283,1.763,1.763,0,0,1,.1,1.706,1.126,1.126,0,0,1,.793.142.977.977,0,0,1,.46.673,3.54,3.54,0,0,1-.489,1.947,1.536,1.536,0,0,1,.85-.276.864.864,0,0,1,.708.5,2.174,2.174,0,0,1-.184,1.884,1.239,1.239,0,0,1,.913-.262.708.708,0,0,1,.46.637c.22,1.9-4.447,7.838-13.553,15.082A.3.3,0,0,1,195.352,147.978Z" transform="translate(-75.216 -72.942)"/><path class="a" d="M84.691,61.9a37.918,37.918,0,0,0-2.471,10.26l1.7-2.733c-1.048,1.685-.581,5.006-.467,6.9a34.229,34.229,0,0,0,1.537,8.355,18.31,18.31,0,0,1,1.19-3.987l2.216,5.523a14.87,14.87,0,0,0,2.053,3.937c3.1,3.845,10.09,4.135,14.523,3.179,3.7-.793,10.189-3.873,9.46-8.752l.319,2.124a18.976,18.976,0,0,0,2.45-13.631l3.236,4.333a25.64,25.64,0,0,0-3.215-14.778c-2.528-4.482-5.332-6.953-9.828-9.488-1.3-.708-3.328-1.1-3.944.255a11.057,11.057,0,0,0-10.855-.453,16.878,16.878,0,0,0-7.576,8.2C84.9,61.416,84.79,61.657,84.691,61.9Z" transform="translate(-43.739 -51.397)"/><path class="b" d="M100.282,94.039c-3.986,0-8.072-1.076-10.267-3.788a15.443,15.443,0,0,1-2.124-4.029l-1.862-4.7a17.7,17.7,0,0,0-.828,3.066.368.368,0,0,1-.34.3.361.361,0,0,1-.368-.255,34.866,34.866,0,0,1-1.558-8.447c0-.29-.042-.6-.064-.942a23.523,23.523,0,0,1-.092-3.64l-.4.637a.361.361,0,0,1-.666-.234A39.086,39.086,0,0,1,84.2,61.652h0c.106-.248.22-.5.333-.708a17.22,17.22,0,0,1,7.746-8.454,11.5,11.5,0,0,1,10.9.269,1.806,1.806,0,0,1,.913-.63,4.56,4.56,0,0,1,3.321.574c4.857,2.733,7.555,5.339,9.97,9.63a26.135,26.135,0,0,1,3.264,14.99.368.368,0,0,1-.269.319.361.361,0,0,1-.389-.135l-2.351-3.158a19.309,19.309,0,0,1-2.733,12.406.375.375,0,0,1-.389.17.418.418,0,0,1-.1-.042c-1.211,3.583-6.1,5.934-9.524,6.67a22.51,22.51,0,0,1-4.617.489ZM86.028,80.2h0a.354.354,0,0,1,.333.227l2.216,5.523a14.813,14.813,0,0,0,2,3.845c3.08,3.809,10.154,3.909,14.162,3.052,3.9-.843,9.842-3.845,9.205-8.334h0a.368.368,0,1,1,.708-.106h0l.163,1.083a18.58,18.58,0,0,0,1.876-12.462.368.368,0,0,1,.212-.4.361.361,0,0,1,.439.113l2.648,3.54a25.413,25.413,0,0,0-3.236-13.588c-2.344-4.156-4.957-6.684-9.687-9.347a3.852,3.852,0,0,0-2.74-.517,1.076,1.076,0,0,0-.708.6.375.375,0,0,1-.234.205.361.361,0,0,1-.3-.057,10.662,10.662,0,0,0-10.494-.425,16.491,16.491,0,0,0-7.392,8.037l-.319.708h0a35.248,35.248,0,0,0-2.216,8.5l.807-1.289a.364.364,0,0,1,.616.389h0c-.828,1.324-.63,3.866-.481,5.721,0,.347.05.708.064.963a34.929,34.929,0,0,0,1.119,6.9,19.258,19.258,0,0,1,.913-2.655A.361.361,0,0,1,86.028,80.2Zm-1.487-18.41Z" transform="translate(-43.589 -51.25)"/><path class="a" d="M123.957,171.169H91.265c-2.124-22.814-5.119-59.925-2.039-64.584a7.244,7.244,0,0,1,2.478-2.245,10.662,10.662,0,0,1,1.367-.708,23.848,23.848,0,0,1,8.292-1.416,45.1,45.1,0,0,1,7.081.418h.064a30.674,30.674,0,0,1,5.905,1.3c.3.113.552.22.751.319C117.96,105.743,122.456,154.14,123.957,171.169Z" transform="translate(-45.399 -66.125)"/><path class="d" d="M127.019,170.067H84.272l-2.535,3.654-8.823,12.745q-.758-6.868-1.374-13.043c-1.48-14.594-2.478-26.333-2.939-35.744v-.234c-.821-16.994.106-26.348,3.045-31.156a14.367,14.367,0,0,1,4.369-4.5,19.933,19.933,0,0,1,7.938-2.9,24.74,24.74,0,0,1,3.335-.283h1.083s2.386-.142,5.813-.184h1.3c3.031,0,6.663,0,10.126.312,1.671.135,3.307.319,4.815.559h.113c.227.042.446.078.666.127a16.994,16.994,0,0,1,5.275,1.671c.658.382,1.3,1.466,1.912,3.094a.71.71,0,0,0,.05.12,44.147,44.147,0,0,1,1.416,4.957c2.365,10.019,4.291,27.311,5.6,41.642.326,3.6.616,7.024.871,10.09.2,2.457.368,4.695.51,6.613C126.905,168.509,126.969,169.323,127.019,170.067Z" transform="translate(-39.68 -65.023)"/><path class="a" d="M95.3,109.78l15.45,33.273.467-30.362Z" transform="translate(-47.558 -68.336)"/><path class="b" d="M110.6,143.265a.361.361,0,0,1-.333-.212l-15.45-33.266a.361.361,0,0,1,.042-.375.347.347,0,0,1,.354-.135l15.925,2.91a.361.361,0,0,1,.3.361l-.467,30.355a.375.375,0,0,1-.29.354Zm-14.82-33.145,14.48,31.156.439-28.458Z" transform="translate(-47.406 -68.187)"/><path class="a" d="M110.45,89.612l.651,9.63a7.276,7.276,0,0,1-8.8,3.817c-6.267-1.806-7.123-6.727-7.123-6.727s-.319-18.176-.3-18.587c0-.545,4.178-3.64,4.765-4.4a20.046,20.046,0,0,0,3.54-7.024l.057,2.747a12.7,12.7,0,0,0,3.972-5.36c.921,2.089,3.137,3.215,5.049,4.461,4.723,3.066,5.3,10.926,4.248,16.073C115.5,89.116,110.45,89.612,110.45,89.612Z" transform="translate(-47.435 -54.887)"/><path class="b" d="M104.528,103.625a9.064,9.064,0,0,1-2.478-.368c-6.373-1.848-7.35-6.8-7.385-7.017-.035-1.919-.326-18.254-.3-18.665s.666-1.02,2.875-2.832A21.194,21.194,0,0,0,99.2,72.966a19.826,19.826,0,0,0,3.448-6.9.368.368,0,0,1,.708.085v1.99a12.2,12.2,0,0,0,3.285-4.73.375.375,0,0,1,.333-.234.354.354,0,0,1,.34.22c.708,1.678,2.429,2.733,4.057,3.753.29.184.581.361.857.545,5.02,3.264,5.4,11.627,4.433,16.456-.864,4.312-4.822,5.381-6.026,5.608l.623,9.3a.389.389,0,0,1,0,.177C111.254,99.292,109.236,103.625,104.528,103.625Zm-1.841-35.319a20.9,20.9,0,0,1-2.9,5.112A20.091,20.091,0,0,1,97.7,75.274a19.99,19.99,0,0,0-2.62,2.393c0,.326.2,12.25.312,18.5,0,.135.906,4.666,6.854,6.373A6.826,6.826,0,0,0,110.575,99l-.637-9.531a.361.361,0,0,1,.326-.389c.2,0,4.822-.538,5.735-5.077s.6-12.639-4.114-15.7c-.276-.184-.559-.361-.85-.538a11.863,11.863,0,0,1-3.965-3.378,12.958,12.958,0,0,1-3.76,4.815.368.368,0,0,1-.595-.283Z" transform="translate(-47.283 -54.732)"/><path class="b" d="M113.513,104.215a8.221,8.221,0,0,1-6.373-2.393c-2.669-2.832-2.365-4.362-2.365-4.362s4.39,2.662,8.575,2.011Z" transform="translate(-50.321 -64.739)"/><path class="b" d="M112.809,104.431a8.433,8.433,0,0,1-6.089-2.528c-2.719-2.832-2.492-4.5-2.457-4.673a.361.361,0,0,1,.205-.248.333.333,0,0,1,.326,0c.042,0,4.333,2.585,8.341,1.961a.354.354,0,0,1,.276.078.333.333,0,0,1,.127.255l.177,4.744a.354.354,0,0,1-.312.368A2.33,2.33,0,0,1,112.809,104.431Zm-7.789-6.5a8.425,8.425,0,0,0,7.973,5.792l-.149-4.008A14.7,14.7,0,0,1,105.02,97.931Z" transform="translate(-50.168 -64.588)"/><path class="a" d="M114.969,78.1s2.719,5.665,1.763,6.465-3.172-.156-3.172-.156" transform="translate(-52.888 -59.088)"/><path class="b" d="M115.488,85.092a6.458,6.458,0,0,1-2.216-.5.347.347,0,0,1-.184-.46.354.354,0,0,1,.46-.191c.524.22,2.174.708,2.832.205.382-.319-.5-3.193-1.862-6.04a.354.354,0,0,1,.637-.3c.857,1.784,2.726,6.026,1.671,6.89A2.025,2.025,0,0,1,115.488,85.092Z" transform="translate(-52.742 -58.95)"/><ellipse class="b" cx="1.423" cy="0.623" rx="1.423" ry="0.623" transform="translate(57.693 19.2) rotate(-83.18)"/><ellipse class="b" cx="1.423" cy="0.623" rx="1.423" ry="0.623" transform="translate(64.984 19.804) rotate(-83.18)"/><path class="a" d="M99.082,78.793A8.681,8.681,0,0,0,97.029,76.2a2.733,2.733,0,0,0-3.54,0,3.987,3.987,0,0,0-1.232,1.976c-.97,3.314.991,5.558,3.824,6.706" transform="translate(-46.596 -58.344)"/><path class="b" d="M95.92,85.137a.3.3,0,0,1-.135,0c-3.484-1.416-4.957-4.008-4.036-7.145A4.326,4.326,0,0,1,93.1,75.868a3.08,3.08,0,0,1,4.043,0,9.106,9.106,0,0,1,2.124,2.7.375.375,0,0,1-.163.5.361.361,0,0,1-.489-.156,8.263,8.263,0,0,0-1.961-2.485,2.379,2.379,0,0,0-3.108,0,3.611,3.611,0,0,0-1.112,1.791c-1.14,3.88,2.124,5.665,3.611,6.267a.361.361,0,1,1-.142.708Z" transform="translate(-46.443 -58.216)"/><path class="b" d="M113.988,93.873c-2.032,0-2.62-2.28-2.648-3.484a.326.326,0,0,1,.12-.276.347.347,0,0,1,.283-.085l5.211.814a.4.4,0,0,1,.248.163.375.375,0,0,1,0,.29A3.54,3.54,0,0,1,113.988,93.873Zm-1.9-3.073c.1.786.489,2.365,1.9,2.365a2.726,2.726,0,0,0,2.422-1.692Z" transform="translate(-52.24 -62.569)"/><path class="d" d="M137.934,106.48s15.578,32.643,18.2,33.28c4.638,1.112,21.4-8.362,21.4-8.362l5.551,9.75S165.9,163.211,153.661,160.06C144.576,157.717,135.35,137,135.35,137Z" transform="translate(-59.249 -67.373)"/><path class="d" d="M64.387,102.764s-.906-3.47-20.662,24.457c0-17.249.743-25.491.743-25.491L30.13,103.649s-6.217,48.546,5.665,50.274S61.08,132.539,61.08,132.539Z" transform="translate(-28.059 -65.986)"/><path class="b" d="M37.3,94.582a.368.368,0,0,1-.368-.368c0-4.461,5.714-7.732,5.955-7.874a.368.368,0,0,1,.5.142.361.361,0,0,1-.142.5c-.057,0-5.587,3.208-5.587,7.237a.361.361,0,0,1-.361.368Z" transform="translate(-30.518 -61.479)"/><path class="b" d="M147.971,172.306a.361.361,0,0,1-.361-.34c-1.3-20.584-6.925-57.942-6.982-58.318a.354.354,0,0,1,.3-.411.368.368,0,0,1,.418.3c.057.375,5.665,37.762,6.982,58.374a.361.361,0,0,1-.34.389Z" transform="translate(-60.788 -69.344)"/><path class="b" d="M53.71,160.978a.368.368,0,0,1-.262-.623c.113-.113,11.258-11.45,18.743-22.12a.361.361,0,0,1,.51-.092.368.368,0,0,1,.092.51c-7.527,10.7-18.715,22.106-18.821,22.22A.375.375,0,0,1,53.71,160.978Z" transform="translate(-35.31 -76.596)"/><path class="b" d="M201.717,143.813a.276.276,0,0,1-.127,0,.326.326,0,0,1-.17-.425,6.7,6.7,0,0,0,0-4.553.327.327,0,1,1,.609-.241,7.315,7.315,0,0,1,0,5.049.312.312,0,0,1-.312.17Z" transform="translate(-78.528 -76.687)"/><path class="b" d="M93.114,150.118h-.05c-.113,0-2.832-.375-4.957-3.923s-1.317-10.848-1.282-11.159a.361.361,0,0,1,.361-.326h0l10.281.184a.368.368,0,0,1,.354.312c.05.262,1.055,6.55,0,9.531s-4.355,5.233-4.5,5.325a.383.383,0,0,1-.212.057Zm-5.6-14.671c-.127,1.473-.517,7.491,1.211,10.373s3.774,3.434,4.305,3.54c.588-.418,3.208-2.4,4.093-4.879s.22-7.576,0-8.865Z" transform="translate(-45.031 -75.613)"/><path class="a" d="M204.181,206.805l3.5-9.5-8.27,7.676a39.708,39.708,0,0,0-11.039-1.522c-13.878,0-25.13,6.684-25.13,14.933s11.251,14.94,25.13,14.94,25.137-6.684,25.137-14.94C213.507,213.73,209.867,209.546,204.181,206.805Z" transform="translate(-67.391 -93.888)"/><path class="e" d="M188.221,233.565c-14.055,0-25.491-6.861-25.491-15.295s11.428-15.287,25.491-15.287a40.05,40.05,0,0,1,10.912,1.459l8.122-7.541a.354.354,0,0,1,.574.382l-3.356,9.205c5.877,2.917,9.205,7.2,9.205,11.79C213.712,226.683,202.276,233.565,188.221,233.565Zm0-29.874c-13.659,0-24.783,6.543-24.783,14.579s11.117,14.586,24.783,14.586S213,226.314,213,218.271c0-4.383-3.328-8.5-9.127-11.329a.354.354,0,0,1-.177-.439l2.96-8.115-7.194,6.677a.354.354,0,0,1-.34.078,39.087,39.087,0,0,0-10.9-1.452Z" transform="translate(-67.242 -93.74)"/><path class="a" d="M172.684,74.666,169.7,82.851l7.123-6.613a34.236,34.236,0,0,0,9.474,1.3c11.952,0,21.646-5.757,21.646-12.837S198.253,51.83,186.293,51.83,164.64,57.558,164.64,64.7C164.64,68.7,167.777,72.308,172.684,74.666Z" transform="translate(-67.799 -51.419)"/><path class="e" d="M169.55,83.044a.382.382,0,0,1-.2-.057.354.354,0,0,1-.135-.418l2.875-7.888c-5.056-2.514-7.952-6.21-7.952-10.182,0-7.286,9.871-13.22,22.007-13.22s22.007,5.934,22.007,13.255-9.871,13.227-22.007,13.227a34.683,34.683,0,0,1-9.354-1.287l-7,6.47A.354.354,0,0,1,169.55,83.044Zm16.6-31.056c-11.74,0-21.3,5.615-21.3,12.512,0,3.76,2.832,7.293,7.838,9.687a.354.354,0,0,1,.177.439l-2.45,6.8,6.047-5.615a.354.354,0,0,1,.34-.078,33.7,33.7,0,0,0,9.375,1.282c11.747,0,21.3-5.615,21.3-12.519S197.894,51.988,186.147,51.988Z" transform="translate(-67.653 -51.259)"/><path class="e" d="M208.38,219.6H175.044a.354.354,0,0,1,0-.708H208.38a.354.354,0,1,1,0,.708Z" transform="translate(-70.733 -100.187)"/><path class="e" d="M208.38,227.708H175.044a.361.361,0,0,1-.354-.354.354.354,0,0,1,.354-.354H208.38a.354.354,0,1,1,0,.708Z" transform="translate(-70.733 -102.555)"/><path class="e" d="M198.276,235.708H175.044a.361.361,0,0,1-.354-.354.354.354,0,0,1,.354-.354h23.232a.354.354,0,0,1,0,.708Z" transform="translate(-70.733 -104.89)"/><path class="e" d="M206.2,65.048h-28.72a.354.354,0,0,1,0-.708H206.2a.354.354,0,0,1,.354.354A.361.361,0,0,1,206.2,65.048Z" transform="translate(-71.445 -55.071)"/><path class="e" d="M197.424,73.918h-19.94a.354.354,0,0,1,0-.708h19.94a.354.354,0,0,1,0,.708Z" transform="translate(-71.445 -57.66)"/></g><g transform="translate(119.666 12.745)"><path class="a" d="M31.651,95.341l-.616-8.4s-2.967-8.27-2.6-9.382,2.974-.234,4.206,4.567c0,0,2.124-10.989,3.087-11.237s1.976.5,1.855,2.124a41.685,41.685,0,0,1-.743,4.44s1.48-6.663,2.719-6.047,0,6.975,0,6.975,1.352-6.231,2.344-5.495-.708,6.67-.708,6.67,2.924-7.576,3.54-5.516-2.464,9.566-2.584,12.285-.5,14.445-.5,14.445Z" transform="translate(88.744 -56.97)"/><path class="b" d="M41.454,100.989a.418.418,0,0,0,.184-.05.382.382,0,0,0,.184-.3c0-.12.368-11.761.489-14.445a29.152,29.152,0,0,1,1.232-5.169c.885-3.066,1.728-5.969,1.36-7.258-.163-.524-.474-.609-.651-.616h0c-.566,0-1.282,1.027-1.99,2.422.22-1.416.241-2.74-.3-3.144a.644.644,0,0,0-.616-.092c-.368.135-.708.708-1.041,1.466,0-1.374-.127-2.577-.743-2.889a.708.708,0,0,0-.666,0,3.144,3.144,0,0,0-1.147,1.522,2.266,2.266,0,0,0-.708-1.692,1.756,1.756,0,0,0-1.579-.354c-.913.227-2.124,5.332-3.08,10.1-.963-2.6-2.386-3.831-3.434-3.873a.991.991,0,0,0-1.034.708c-.382,1.154,2.046,8.065,2.577,9.573l.616,8.348a.361.361,0,0,0,.191.29l10,5.431A.418.418,0,0,0,41.454,100.989Zm2.7-27.077v.064c.333,1.083-.552,4.142-1.331,6.84a29.449,29.449,0,0,0-1.26,5.346c-.106,2.33-.4,11.435-.474,13.857l-9.3-5.056-.6-8.2a.219.219,0,0,0,0-.092c-1.416-4.008-2.8-8.5-2.592-9.148,0-.05.057-.191.319-.177.765,0,2.308,1.331,3.179,4.723a.389.389,0,0,0,.368.276.375.375,0,0,0,.347-.3c.963-5.042,2.3-10.536,2.9-10.975a1.041,1.041,0,0,1,.878.22,1.756,1.756,0,0,1,.467,1.522c-.12,1.558-.708,4.369-.708,4.39a.363.363,0,1,0,.708.163c.666-3,1.714-5.764,2.2-5.806.595.3.382,3.64-.191,6.578a.368.368,0,1,0,.708.149c.566-2.592,1.374-4.957,1.806-5.247.361.453-.05,3.3-.906,6.238a.368.368,0,0,0,.234.453.361.361,0,0,0,.453-.212C42.261,77.035,43.592,74.295,44.152,73.912ZM31.449,95.19Z" transform="translate(88.946 -56.819)"/><path class="a" d="M208.923,140.966s-4.248-2.832-5.049-4.546-.786-5.19-1.629-6.819-2.308.772-1.416,5.488c0,0-6.153-10.154-6.783-8.922s0,1.416,1.579,4.687c0,0-1.232-3.54-2.6-2.7s2.068,5.169,2.068,5.169-2.712-3.923-3.491-2.457,2.79,5.1,2.79,5.1-3.739-4.659-3.937-2.953,4.248,7.491,13.454,14.8" transform="translate(-190.102 -73.089)"/><path class="b" d="M203.846,147.978a.326.326,0,0,0,.255-.12.319.319,0,0,0-.05-.453c-9.368-7.463-13.454-13.064-13.312-14.509a.227.227,0,0,1,0-.106,6.175,6.175,0,0,1,1.933,1.614,21.241,21.241,0,0,0,1.416,1.636.326.326,0,1,0,.489-.432c-.347-.425-.878-1.062-1.459-1.678-.906-1.182-1.622-2.457-1.3-3.059.085-.149.156-.156.2-.156.51-.042,1.416.928,2.181,1.876.283.4.5.708.574.779a.326.326,0,0,0,.524-.382c-.1-.142-.312-.446-.6-.807-.892-1.267-1.855-2.939-1.721-3.668a.319.319,0,0,1,.149-.234.453.453,0,0,1,.425-.042,1.756,1.756,0,0,1,.708.637c.283.51.616,1.133,1.013,1.976a.323.323,0,0,0,.595-.248,8.808,8.808,0,0,0-1.062-2.124c0-.057-.064-.12-.1-.17-.644-1.182-.786-1.416-.489-2.075.843.446,3.788,4.751,6.274,8.844a.319.319,0,0,0,.389.135.333.333,0,0,0,.205-.368c-.708-3.583.042-5.466.46-5.608.085-.035.234.142.326.333a12.157,12.157,0,0,1,.807,3.349,14.22,14.22,0,0,0,.821,3.463c.836,1.813,4.957,4.56,5.162,4.673a.322.322,0,1,0,.354-.538c-.042,0-4.171-2.762-4.957-4.411a13.651,13.651,0,0,1-.758-3.285,12.676,12.676,0,0,0-.878-3.54c-.4-.793-.913-.708-1.112-.644-.821.283-1.374,2.082-1.112,4.772-1.933-3.1-5.056-7.867-6.1-7.846a.5.5,0,0,0-.432.283,1.763,1.763,0,0,0-.1,1.706,1.126,1.126,0,0,0-.793.142.977.977,0,0,0-.46.673,3.54,3.54,0,0,0,.489,1.947,1.536,1.536,0,0,0-.85-.276.864.864,0,0,0-.708.5,2.174,2.174,0,0,0,.184,1.884,1.239,1.239,0,0,0-.913-.262.708.708,0,0,0-.46.637c-.219,1.9,4.447,7.838,13.553,15.082a.3.3,0,0,0,.241.1Z" transform="translate(-190.045 -72.942)"/><path class="a" d="M118.057,61.9a37.918,37.918,0,0,1,2.471,10.26l-1.7-2.733c1.048,1.685.581,5.006.467,6.9a34.229,34.229,0,0,1-1.537,8.355,18.31,18.31,0,0,0-1.19-3.987l-2.216,5.523a14.869,14.869,0,0,1-2.053,3.937c-3.1,3.845-10.09,4.135-14.523,3.179-3.7-.793-10.189-3.873-9.46-8.752L88,86.716a18.976,18.976,0,0,1-2.45-13.631l-3.236,4.333a25.64,25.64,0,0,1,3.215-14.778c2.528-4.482,5.332-6.953,9.828-9.488,1.3-.708,3.328-1.1,3.944.255a11.057,11.057,0,0,1,10.855-.453,16.878,16.878,0,0,1,7.576,8.2C117.852,61.416,117.958,61.657,118.057,61.9Z" transform="translate(-25.071 -51.397)"/><path class="b" d="M102.169,94.039c3.987,0,8.072-1.076,10.267-3.788a15.443,15.443,0,0,0,2.124-4.029l1.862-4.7a17.7,17.7,0,0,1,.828,3.066.368.368,0,0,0,.34.3.361.361,0,0,0,.368-.255,34.867,34.867,0,0,0,1.558-8.447c0-.29.042-.6.064-.942a23.521,23.521,0,0,0,.092-3.64l.4.637a.361.361,0,0,0,.666-.234,39.085,39.085,0,0,0-2.492-10.359h0c-.106-.248-.22-.5-.333-.708a17.22,17.22,0,0,0-7.746-8.454,11.5,11.5,0,0,0-10.9.269,1.806,1.806,0,0,0-.913-.63,4.56,4.56,0,0,0-3.321.574c-4.857,2.733-7.555,5.339-9.97,9.63A26.135,26.135,0,0,0,81.8,77.321a.368.368,0,0,0,.269.319.361.361,0,0,0,.389-.135l2.351-3.158A19.309,19.309,0,0,0,87.54,86.753a.375.375,0,0,0,.389.17.418.418,0,0,0,.1-.042c1.211,3.583,6.1,5.934,9.524,6.67a22.51,22.51,0,0,0,4.617.489ZM116.422,80.2h0a.354.354,0,0,0-.333.227l-2.216,5.523a14.813,14.813,0,0,1-2,3.845C108.8,93.6,101.723,93.7,97.715,92.843,93.813,92,87.873,89,88.51,84.508h0A.368.368,0,1,0,87.8,84.4h0l-.163,1.083a18.58,18.58,0,0,1-1.876-12.462.368.368,0,0,0-.212-.4.361.361,0,0,0-.439.113l-2.648,3.54A25.413,25.413,0,0,1,85.7,62.685c2.344-4.156,4.957-6.684,9.687-9.347a3.852,3.852,0,0,1,2.74-.517,1.076,1.076,0,0,1,.708.6.375.375,0,0,0,.234.205.361.361,0,0,0,.3-.057,10.662,10.662,0,0,1,10.494-.425,16.491,16.491,0,0,1,7.392,8.037l.319.708h0a35.247,35.247,0,0,1,2.216,8.5l-.807-1.289a.364.364,0,0,0-.616.389h0c.828,1.324.63,3.866.481,5.721,0,.347-.05.708-.064.963a34.931,34.931,0,0,1-1.119,6.9,19.26,19.26,0,0,0-.913-2.655A.361.361,0,0,0,116.422,80.2Zm1.487-18.41Z" transform="translate(-24.924 -51.25)"/><path class="a" d="M87.906,171.169H120.6c2.124-22.814,5.119-59.925,2.039-64.584a7.244,7.244,0,0,0-2.478-2.245,10.662,10.662,0,0,0-1.367-.708,23.848,23.848,0,0,0-8.292-1.416,45.1,45.1,0,0,0-7.081.418h-.064a30.674,30.674,0,0,0-5.905,1.3c-.3.113-.552.22-.751.319C93.9,105.743,89.407,154.14,87.906,171.169Z" transform="translate(-32.527 -66.125)"/><path class="d" d="M68.316,170.067h42.747l2.535,3.654,8.823,12.745q.758-6.868,1.374-13.043c1.48-14.594,2.478-26.333,2.939-35.744v-.234c.821-16.994-.106-26.348-3.045-31.156a14.367,14.367,0,0,0-4.369-4.5,19.933,19.933,0,0,0-7.938-2.9,24.74,24.74,0,0,0-3.335-.283h-1.083s-2.386-.142-5.813-.184h-1.3c-3.031,0-6.663,0-10.126.312-1.671.135-3.307.319-4.815.559H84.8c-.227.042-.446.078-.666.127a16.994,16.994,0,0,0-5.275,1.671c-.659.382-1.3,1.466-1.912,3.094a.709.709,0,0,1-.05.12,44.145,44.145,0,0,0-1.416,4.957c-2.365,10.019-4.291,27.311-5.6,41.642-.326,3.6-.616,7.024-.871,10.09-.2,2.457-.368,4.695-.51,6.613C68.429,168.509,68.366,169.323,68.316,170.067Z" transform="translate(-21.717 -65.023)"/><path class="a" d="M111.218,109.78l-15.45,33.273L95.3,112.69Z" transform="translate(-25.023 -68.336)"/><path class="b" d="M95.618,143.265a.361.361,0,0,0,.333-.212l15.45-33.266a.361.361,0,0,0-.042-.375.347.347,0,0,0-.354-.135l-15.925,2.91a.361.361,0,0,0-.3.361l.467,30.355a.375.375,0,0,0,.29.354Zm14.82-33.145-14.48,31.156-.439-28.458Z" transform="translate(-24.873 -68.187)"/><path class="a" d="M101.387,89.612l-.651,9.63a7.276,7.276,0,0,0,8.8,3.817c6.267-1.806,7.123-6.727,7.123-6.727s.319-18.176.3-18.587c0-.545-4.178-3.64-4.765-4.4a20.045,20.045,0,0,1-3.54-7.024L108.6,69.07a12.7,12.7,0,0,1-3.972-5.36c-.921,2.089-3.137,3.215-5.049,4.461-4.723,3.066-5.3,10.926-4.248,16.073C96.339,89.116,101.387,89.612,101.387,89.612Z" transform="translate(-30.466 -54.887)"/><path class="b" d="M106.92,103.625a9.064,9.064,0,0,0,2.478-.368c6.373-1.848,7.35-6.8,7.385-7.017.035-1.919.326-18.254.3-18.665s-.666-1.02-2.875-2.832a21.193,21.193,0,0,1-1.968-1.777,19.826,19.826,0,0,1-3.448-6.9.368.368,0,0,0-.708.085v1.99a12.2,12.2,0,0,1-3.285-4.73.375.375,0,0,0-.333-.234.354.354,0,0,0-.34.22c-.708,1.678-2.429,2.733-4.057,3.753-.29.184-.581.361-.857.545-5.02,3.264-5.4,11.627-4.433,16.456.864,4.312,4.822,5.381,6.026,5.608l-.623,9.3a.389.389,0,0,0,0,.177C100.193,99.292,102.212,103.625,106.92,103.625Zm1.841-35.319a20.9,20.9,0,0,0,2.9,5.112,20.09,20.09,0,0,0,2.082,1.855,19.99,19.99,0,0,1,2.62,2.393c0,.326-.2,12.25-.312,18.5,0,.135-.906,4.666-6.854,6.373A6.826,6.826,0,0,1,100.873,99l.637-9.531a.361.361,0,0,0-.326-.389c-.2,0-4.822-.538-5.735-5.077s-.6-12.639,4.114-15.7c.276-.184.559-.361.85-.538a11.863,11.863,0,0,0,3.965-3.378,12.958,12.958,0,0,0,3.76,4.815.368.368,0,0,0,.595-.283Z" transform="translate(-30.228 -54.732)"/><path class="b" d="M104.765,104.215a8.221,8.221,0,0,0,6.373-2.393c2.669-2.832,2.365-4.362,2.365-4.362s-4.39,2.662-8.575,2.011Z" transform="translate(-34.021 -64.739)"/><path class="b" d="M105.149,104.431a8.433,8.433,0,0,0,6.09-2.528c2.719-2.832,2.492-4.5,2.457-4.673a.361.361,0,0,0-.205-.248.333.333,0,0,0-.326,0c-.042,0-4.333,2.585-8.341,1.961a.354.354,0,0,0-.276.078.333.333,0,0,0-.127.255l-.177,4.744a.354.354,0,0,0,.312.368A2.33,2.33,0,0,0,105.149,104.431Zm7.789-6.5a8.425,8.425,0,0,1-7.973,5.792l.149-4.008A14.7,14.7,0,0,0,112.938,97.931Z" transform="translate(-33.852 -64.588)"/><path class="a" d="M115.527,78.1s-2.719,5.665-1.763,6.465,3.172-.156,3.172-.156" transform="translate(-43.67 -59.088)"/><path class="b" d="M114.711,85.092a6.458,6.458,0,0,0,2.216-.5.347.347,0,0,0,.184-.46.354.354,0,0,0-.46-.191c-.524.22-2.174.708-2.832.205-.382-.319.5-3.193,1.862-6.04a.354.354,0,0,0-.637-.3c-.857,1.784-2.726,6.026-1.671,6.89A2.025,2.025,0,0,0,114.711,85.092Z" transform="translate(-43.52 -58.95)"/><ellipse class="b" cx="1.423" cy="0.623" rx="1.423" ry="0.623" transform="translate(75.007 19.348) rotate(-96.82)"/><ellipse class="b" cx="1.423" cy="0.623" rx="1.423" ry="0.623" transform="translate(67.716 19.952) rotate(-96.82)"/><path class="a" d="M92.005,78.793A8.681,8.681,0,0,1,94.059,76.2a2.733,2.733,0,0,1,3.54,0,3.987,3.987,0,0,1,1.232,1.976c.97,3.314-.991,5.558-3.824,6.706" transform="translate(-10.555 -58.344)"/><path class="b" d="M94.868,85.137a.3.3,0,0,0,.135,0c3.484-1.416,4.957-4.008,4.036-7.145a4.326,4.326,0,0,0-1.352-2.124,3.08,3.08,0,0,0-4.043,0,9.106,9.106,0,0,0-2.124,2.7.375.375,0,0,0,.163.5.361.361,0,0,0,.489-.156,8.263,8.263,0,0,1,1.961-2.485,2.379,2.379,0,0,1,3.108,0,3.611,3.611,0,0,1,1.112,1.791c1.14,3.88-2.124,5.665-3.611,6.267a.361.361,0,1,0,.142.708Z" transform="translate(-10.408 -58.216)"/><path class="b" d="M114.583,93.873c2.032,0,2.62-2.28,2.648-3.484a.326.326,0,0,0-.12-.276.347.347,0,0,0-.283-.085l-5.211.814a.4.4,0,0,0-.248.163.375.375,0,0,0,0,.29A3.54,3.54,0,0,0,114.583,93.873Zm1.9-3.073c-.1.786-.489,2.365-1.9,2.365a2.726,2.726,0,0,1-2.422-1.692Z" transform="translate(-42.394 -62.569)"/><path class="d" d="M180.5,106.48s-15.578,32.643-18.2,33.28c-4.638,1.112-21.4-8.362-21.4-8.362l-5.551,9.75s17.178,22.064,29.421,18.913C173.855,157.717,183.082,137,183.082,137Z" transform="translate(-125.245 -67.373)"/><path class="d" d="M28.5,102.764s.906-3.47,20.662,24.457c0-17.249-.743-25.491-.743-25.491l14.339,1.919s6.217,48.546-5.665,50.274-25.286-21.384-25.286-21.384Z" transform="translate(69.105 -65.986)"/><path class="b" d="M43.067,94.582a.368.368,0,0,0,.368-.368c0-4.461-5.714-7.732-5.955-7.874a.368.368,0,0,0-.5.142.361.361,0,0,0,.142.5c.057,0,5.587,3.208,5.587,7.237a.361.361,0,0,0,.361.368Z" transform="translate(84.091 -61.479)"/><path class="b" d="M140.985,172.306a.361.361,0,0,0,.361-.34c1.3-20.584,6.925-57.942,6.982-58.318a.354.354,0,0,0-.3-.411.368.368,0,0,0-.418.3c-.057.375-5.665,37.762-6.982,58.374a.361.361,0,0,0,.34.389Z" transform="translate(-94.23 -69.344)"/><path class="b" d="M72.493,160.978a.368.368,0,0,0,.262-.623c-.113-.113-11.258-11.45-18.743-22.12a.361.361,0,0,0-.51-.092.368.368,0,0,0-.092.51c7.527,10.7,18.715,22.106,18.821,22.22A.375.375,0,0,0,72.493,160.978Z" transform="translate(43.045 -76.596)"/><path class="b" d="M202.155,143.813a.276.276,0,0,0,.127,0,.326.326,0,0,0,.17-.425,6.7,6.7,0,0,1,0-4.553.327.327,0,1,0-.609-.241,7.315,7.315,0,0,0,0,5.049A.312.312,0,0,0,202.155,143.813Z" transform="translate(-191.406 -76.687)"/><path class="b" d="M91.835,150.118h.05c.113,0,2.832-.375,4.957-3.923s1.317-10.848,1.282-11.159a.361.361,0,0,0-.361-.326h0l-10.281.184a.368.368,0,0,0-.354.312c-.05.262-1.055,6.55,0,9.531s4.355,5.233,4.5,5.325a.382.382,0,0,0,.212.057Zm5.6-14.671c.127,1.473.517,7.491-1.211,10.373s-3.774,3.434-4.305,3.54c-.588-.418-3.208-2.4-4.093-4.879s-.22-7.576,0-8.865Z" transform="translate(-5.98 -75.613)"/></g></g></g></svg>