<svg xmlns="http://www.w3.org/2000/svg" width="282" height="210" viewBox="0 0 282 210"><defs><style>.a{fill:#68b64d;}.b{fill:#231f20;}.c{fill:#fff;}.d{fill:#d1d3d4;}</style></defs><g transform="translate(-56.95 -43.66)"><rect class="a" width="281.004" height="34.42" transform="translate(57.443 44.153)"/><path class="b" d="M338.457,79.055H57.443a.493.493,0,0,1-.493-.493V44.153a.493.493,0,0,1,.493-.493H338.457a.493.493,0,0,1,.493.493v34.41A.493.493,0,0,1,338.457,79.055ZM57.985,78.07H338.014V44.646H57.985Z" transform="translate(0)"/><rect class="c" width="281.004" height="174.237" transform="translate(57.443 78.93)"/><path class="b" d="M338.457,254.16H57.443a.493.493,0,0,1-.493-.494V79.064a.5.5,0,0,1,.493-.494H338.457a.5.5,0,0,1,.493.494v174.6A.493.493,0,0,1,338.457,254.16Zm-280.521-.988H337.964V79.558H57.985Z" transform="translate(0 -0.5)"/><rect class="c" width="148.176" height="10.645" rx="5.323" transform="translate(108.067 55.823)"/><circle class="c" cx="6.505" cy="6.505" r="6.505" transform="translate(270.367 54.364)"/><circle class="c" cx="6.505" cy="6.505" r="6.505" transform="translate(289.706 54.364)"/><circle class="c" cx="6.505" cy="6.505" r="6.505" transform="translate(309.055 54.364)"/><path class="d" d="M251.814,137.636H144.022a6.082,6.082,0,0,1-6.082-6.072V99.412a6.091,6.091,0,0,1,6.082-6.082H251.814a6.091,6.091,0,0,1,6.082,6.082v32.153a6.082,6.082,0,0,1-6.082,6.072ZM144.022,94.316a5.106,5.106,0,0,0-5.1,5.1v32.153a5.1,5.1,0,0,0,5.1,5.086H251.814a5.1,5.1,0,0,0,5.1-5.086V99.412a5.106,5.106,0,0,0-5.1-5.1Z" transform="translate(-1.161 -0.603)"/><path class="d" d="M248.09,117.753H148.971a1.971,1.971,0,0,1,0-3.943H248.09a1.971,1.971,0,0,1,0,3.943Z" transform="translate(-1.29 -0.882)"/><path class="d" d="M240.777,128.673H148.971a1.971,1.971,0,0,1,0-3.943h91.835a1.971,1.971,0,0,1,0,3.943Z" transform="translate(-1.29 -1.019)"/><path class="d" d="M251.814,190.846H144.022a6.091,6.091,0,0,1-6.082-6.082V152.612a6.082,6.082,0,0,1,6.082-6.072H251.814a6.082,6.082,0,0,1,6.082,6.072v32.152a6.091,6.091,0,0,1-6.082,6.082ZM144.022,147.476a5.1,5.1,0,0,0-5.1,5.086v32.153a5.106,5.106,0,0,0,5.1,5.1H251.814a5.106,5.106,0,0,0,5.1-5.1v-32.1a5.1,5.1,0,0,0-5.1-5.086Z" transform="translate(-1.161 -1.249)"/><path class="d" d="M248.09,170.943H148.971a1.971,1.971,0,0,1,0-3.943H248.09a1.971,1.971,0,0,1,0,3.943Z" transform="translate(-1.29 -1.55)"/><path class="d" d="M240.777,181.873H148.971a1.971,1.971,0,0,1,0-3.943h91.835a1.971,1.971,0,0,1,0,3.943Z" transform="translate(-1.29 -1.688)"/><path class="d" d="M251.814,244.046H144.022a6.082,6.082,0,0,1-6.082-6.072V205.822a6.091,6.091,0,0,1,6.082-6.082H251.814a6.091,6.091,0,0,1,6.082,6.082v32.153A6.082,6.082,0,0,1,251.814,244.046Zm-107.793-43.32a5.106,5.106,0,0,0-5.1,5.1v32.153a5.1,5.1,0,0,0,5.1,5.086H251.814a5.1,5.1,0,0,0,5.1-5.086V205.822a5.106,5.106,0,0,0-5.1-5.1Z" transform="translate(-1.161 -1.869)"/><path class="d" d="M248.09,224.163H148.971a1.971,1.971,0,0,1,0-3.943H248.09a1.971,1.971,0,0,1,0,3.943Z" transform="translate(-1.29 -2.162)"/><path class="d" d="M240.777,235.083H148.971a1.971,1.971,0,0,1,0-3.943h91.835a1.971,1.971,0,0,1,0,3.943Z" transform="translate(-1.29 -2.319)"/><path class="d" d="M77,177.2a4.8,4.8,0,1,1,4.8-4.8,4.8,4.8,0,0,1-4.8,4.8Zm0-8.615a3.815,3.815,0,1,0,3.815,3.815A3.815,3.815,0,0,0,77,168.586Z" transform="translate(-0.219 -1.551)"/><path class="d" d="M122.237,174.413H87.561a1.971,1.971,0,1,1,0-3.943h34.676a1.971,1.971,0,1,1,0,3.943Z" transform="translate(-0.41 -1.594)"/><path class="d" d="M77,194.13a4.81,4.81,0,1,1,4.8-4.81,4.81,4.81,0,0,1-4.8,4.81Zm0-8.625a3.824,3.824,0,1,0,3.815,3.815A3.824,3.824,0,0,0,77,185.506Z" transform="translate(-0.218 -1.763)"/><path class="d" d="M122.237,191.333H87.561a1.971,1.971,0,0,1,0-3.943h34.676a1.971,1.971,0,0,1,0,3.943Z" transform="translate(-0.41 -1.806)"/><path class="d" d="M77,211.05a4.8,4.8,0,1,1,4.8-4.8A4.8,4.8,0,0,1,77,211.05Zm0-8.615a3.815,3.815,0,1,0,3.815,3.815A3.815,3.815,0,0,0,77,202.436Z" transform="translate(-0.219 -1.975)"/><path class="d" d="M122.237,208.263H87.561a1.971,1.971,0,0,1,0-3.943h34.676a1.971,1.971,0,0,1,0,3.943Z" transform="translate(-0.41 -2.019)"/><rect class="a" width="60.786" height="57.829" rx="8.69" transform="translate(265.005 93.231)"/><rect class="c" width="60.786" height="57.829" rx="8.69" transform="translate(265.005 162.355)"/><path class="b" d="M320.233,222.145H276.568a9.068,9.068,0,0,1-9.058-9.048V172.388a9.068,9.068,0,0,1,9.058-9.058h43.665a9.058,9.058,0,0,1,9.048,9.058V213.1a9.058,9.058,0,0,1-9.048,9.048Zm-43.665-57.829a8.082,8.082,0,0,0-8.073,8.073V213.1a8.083,8.083,0,0,0,8.073,8.063h43.665A8.073,8.073,0,0,0,328.3,213.1V172.388a8.073,8.073,0,0,0-8.063-8.073Z" transform="translate(-3.017 -1.427)"/><path class="c" d="M279.344,114.14h5.914l6.466,17.8h-6.082l-.867-2.612h-5.283l-.828,2.612H272.75Zm2.888,6.21-1.35,4.4h2.7Z" transform="translate(-3.093 -0.877)"/><path class="c" d="M293.23,131.941v-17.8h6.2a16.756,16.756,0,0,1,3.775.414,8.437,8.437,0,0,1,3.164,1.439,7.284,7.284,0,0,1,2.2,2.7,11.158,11.158,0,0,1,0,8.289,7.935,7.935,0,0,1-2.109,2.809,8.694,8.694,0,0,1-3.026,1.616,11.987,11.987,0,0,1-3.568.532Zm5.382-12.725v7.6h1.035a4.475,4.475,0,0,0,3.026-.917,3.755,3.755,0,0,0,1.055-2.957,3.46,3.46,0,0,0-1.055-2.691,4.031,4.031,0,0,0-2.819-.986Z" transform="translate(-3.386 -0.877)"/><path class="c" d="M317.438,132.437a11.077,11.077,0,0,1-1.971-.187,10.841,10.841,0,0,1-1.873-.552,11.454,11.454,0,0,1-1.705-.848,8.505,8.505,0,0,1-1.439-1.094l3.41-3.943a5.549,5.549,0,0,0,1.557,1.212,4.14,4.14,0,0,0,1.971.522,2.178,2.178,0,0,0,.858-.168.67.67,0,0,0,.384-.66.68.68,0,0,0-.128-.424,1.3,1.3,0,0,0-.453-.365,6.329,6.329,0,0,0-.907-.414c-.384-.158-.867-.335-1.439-.532a12.713,12.713,0,0,1-1.626-.72,5.618,5.618,0,0,1-1.37-.986,4.474,4.474,0,0,1-.986-1.449,5.245,5.245,0,0,1-.345-2.03,5.786,5.786,0,0,1,.631-2.819,5.914,5.914,0,0,1,1.626-1.9A6.565,6.565,0,0,1,315.92,114a9.324,9.324,0,0,1,2.464-.335,9.009,9.009,0,0,1,3.351.68,8.792,8.792,0,0,1,2.957,1.971l-3.469,3.795a3.618,3.618,0,0,0-1.36-1.183,3.509,3.509,0,0,0-1.479-.384,2.2,2.2,0,0,0-.986.187.631.631,0,0,0-.374.611.641.641,0,0,0,.384.6,9.662,9.662,0,0,0,1.262.5c.591.207,1.222.444,1.873.71a7.422,7.422,0,0,1,1.824,1.045,5.245,5.245,0,0,1,1.37,1.567,4.5,4.5,0,0,1,.542,2.316,6.13,6.13,0,0,1-.6,2.8,5.786,5.786,0,0,1-1.567,1.971,6.506,6.506,0,0,1-2.2,1.183A7.973,7.973,0,0,1,317.438,132.437Z" transform="translate(-3.633 -0.87)"/><path class="b" d="M279.345,184.1h5.914l6.466,17.791h-6.082l-.818-2.612h-5.283l-.828,2.612H272.8Zm2.888,6.21-1.35,4.4h2.7Z" transform="translate(-3.093 -1.747)"/><path class="b" d="M293.23,201.891V184.1h6.2a16.757,16.757,0,0,1,3.775.414,8.585,8.585,0,0,1,3.164,1.429,7.314,7.314,0,0,1,2.2,2.711,11.158,11.158,0,0,1,0,8.29,7.886,7.886,0,0,1-2.109,2.8,8.712,8.712,0,0,1-3.026,1.626,12.3,12.3,0,0,1-3.568.522Zm5.382-12.715v7.57h1.035a4.475,4.475,0,0,0,3.026-.917,3.755,3.755,0,0,0,1.055-2.957,3.43,3.43,0,0,0-1.055-2.691,4.031,4.031,0,0,0-2.819-.986Z" transform="translate(-3.386 -1.747)"/><path class="b" d="M317.438,202.388a10.25,10.25,0,0,1-1.971-.187,9.315,9.315,0,0,1-1.873-.552,10.575,10.575,0,0,1-1.705-.848,9.008,9.008,0,0,1-1.439-1.084l3.41-3.943a5.55,5.55,0,0,0,1.557,1.212,4.248,4.248,0,0,0,1.971.522,2.021,2.021,0,0,0,.858-.177.651.651,0,0,0,.384-.651.709.709,0,0,0-.128-.434,1.42,1.42,0,0,0-.453-.365,9.669,9.669,0,0,0-.907-.414c-.384-.148-.867-.325-1.439-.522a12.713,12.713,0,0,1-1.626-.72,5.657,5.657,0,0,1-1.37-.986,4.474,4.474,0,0,1-.986-1.449,5.2,5.2,0,0,1-.345-1.971,5.589,5.589,0,0,1,2.257-4.721,6.585,6.585,0,0,1,2.247-1.074,9.728,9.728,0,0,1,2.464-.325,9.009,9.009,0,0,1,3.351.68,8.792,8.792,0,0,1,2.957,1.971l-3.47,3.795a3.617,3.617,0,0,0-1.321-1.222,3.39,3.39,0,0,0-1.479-.394,2.346,2.346,0,0,0-.986.187.68.68,0,0,0,0,1.222,9.66,9.66,0,0,0,1.262.5c.591.2,1.222.434,1.873.7a8.112,8.112,0,0,1,1.823,1.045,5.4,5.4,0,0,1,1.37,1.577,4.485,4.485,0,0,1,.542,2.306,6.141,6.141,0,0,1-.6,2.809,5.974,5.974,0,0,1-1.567,1.971,6.673,6.673,0,0,1-2.2,1.183,8.27,8.27,0,0,1-2.464.355Z" transform="translate(-3.633 -1.741)"/><path class="d" d="M118,155.821H78.4a6.8,6.8,0,0,1-6.486-4.721,6.545,6.545,0,0,1-.335-2.1v-48.85A6.821,6.821,0,0,1,78.4,93.33H118a6.821,6.821,0,0,1,6.821,6.821V149A6.831,6.831,0,0,1,118,155.821ZM78.4,94.316a5.845,5.845,0,0,0-5.835,5.835V149a5.747,5.747,0,0,0,.286,1.794,5.815,5.815,0,0,0,5.549,4.041H118A5.845,5.845,0,0,0,123.83,149v-48.85A5.845,5.845,0,0,0,118,94.316Z" transform="translate(-0.21 -0.589)"/><path class="a" d="M124.335,147.933v1.686a6.328,6.328,0,0,1-6.328,6.328H78.412a6.328,6.328,0,0,1-6.022-4.386c1.883-5.313,6.791-12.6,19.6-14.568a46.024,46.024,0,0,1,7.126-.522,49.453,49.453,0,0,1,6.032.355C116.173,138.146,121.634,143.232,124.335,147.933Z" transform="translate(-0.221 -1.153)"/><path class="c" d="M110.245,119.183s.493-13.6,0-14.588S85.6,98.848,85.859,99.469s1.094,2.494,1.094,2.494l-3.2.867,3.2,1.636-3.194,1.439,4.268,2.04.306,11.6Z" transform="translate(-0.384 -0.692)"/><path class="b" d="M88.327,120.091a.513.513,0,0,1-.513-.493l-.3-11.3-3.943-1.9a.513.513,0,0,1-.286-.463.5.5,0,0,1,.3-.453l2.287-1.055-2.326-1.2a.532.532,0,0,1-.266-.513.5.5,0,0,1,.375-.434l2.622-.71c-.276-.591-.69-1.508-.848-1.971a.552.552,0,0,1,.276-.69c.769-.345,9.857,1.479,12.617,2.05,11.966,2.444,12.262,3.056,12.41,3.351.513.986.168,11.611.059,14.785a.522.522,0,0,1-.5.493l-21.911.4Zm21.911-.917ZM84.975,105.947l3.282,1.567a.513.513,0,0,1,.286.453l.3,11.1,20.926-.394c.217-6.091.306-12.755.059-13.8-1.557-.858-19.349-4.613-23.193-4.928.335.759.789,1.754.8,1.774a.532.532,0,0,1,0,.424.522.522,0,0,1-.335.276l-1.971.522,2.09,1.084a.513.513,0,0,1,0,.917ZM109.883,104.961Z" transform="translate(-0.377 -0.685)"/><path class="c" d="M106.89,119.954c.591-3.706,6.732-4.613,6.427-.256a6.417,6.417,0,0,1-1.636,4.1,3.815,3.815,0,0,1-4.12.986" transform="translate(-0.716 -0.916)"/><path class="b" d="M108.834,125.525a3.657,3.657,0,0,1-1.488-.306.507.507,0,0,1,.414-.927,3.312,3.312,0,0,0,3.548-.858,5.914,5.914,0,0,0,1.5-3.775,1.971,1.971,0,0,0-1.715-2.356,3.45,3.45,0,0,0-3.706,2.72.522.522,0,0,1-.582.424.5.5,0,0,1-.424-.591,4.436,4.436,0,0,1,4.82-3.568,2.957,2.957,0,0,1,2.622,3.44,6.989,6.989,0,0,1-1.784,4.416A4.534,4.534,0,0,1,108.834,125.525Z" transform="translate(-0.708 -0.909)"/><path class="c" d="M91.256,119.954c-.591-3.706-6.732-4.613-6.427-.256a6.417,6.417,0,0,0,1.636,4.1,3.824,3.824,0,0,0,4.12.986" transform="translate(-0.399 -0.916)"/><path class="b" d="M89.3,125.525a4.554,4.554,0,0,1-3.2-1.38,6.949,6.949,0,0,1-1.784-4.416,2.957,2.957,0,0,1,2.651-3.44,4.436,4.436,0,0,1,4.82,3.568.5.5,0,0,1-.414.591.522.522,0,0,1-.591-.424,3.44,3.44,0,0,0-3.7-2.72,1.971,1.971,0,0,0-1.725,2.356,6,6,0,0,0,1.5,3.775,3.312,3.312,0,0,0,3.548.858.507.507,0,1,1,.414.927,3.627,3.627,0,0,1-1.518.306Z" transform="translate(-0.391 -0.909)"/><path class="c" d="M92.18,138.553A7.057,7.057,0,0,0,98.7,142.18a7.816,7.816,0,0,0,6.821-3.627l-.651-14.223H92.831Z" transform="translate(-0.505 -1.004)"/><path class="b" d="M98.688,142.725a7.481,7.481,0,0,1-6.969-3.943.512.512,0,0,1,0-.237l.651-14.223a.513.513,0,0,1,.5-.493h12.035a.522.522,0,0,1,.513.493l.641,14.223a.444.444,0,0,1-.059.266,8.28,8.28,0,0,1-7.314,3.913ZM92.7,138.487a6.545,6.545,0,0,0,5.993,3.223A7.314,7.314,0,0,0,105,138.467l-.621-13.583H93.317Z" transform="translate(-0.498 -0.996)"/><path class="b" d="M92.837,130.488a9.857,9.857,0,0,0,3.637,3.184c2.385,1.321,5.914,2.8,8.871,2.356l-.522-6.042a27.087,27.087,0,0,1-6.387,0A17.86,17.86,0,0,1,92.995,129C92.66,128.862,92.472,129.907,92.837,130.488Z" transform="translate(-0.511 -1.07)"/><path class="b" d="M104.214,136.592c-2.957,0-6.2-1.518-7.984-2.494a10.2,10.2,0,0,1-3.815-3.361,1.971,1.971,0,0,1,0-2.021.6.6,0,0,1,.729-.177,18.314,18.314,0,0,0,5.352.986,26.781,26.781,0,0,0,6.269,0,.513.513,0,0,1,.375.1.552.552,0,0,1,.187.345l.473,6.022a.493.493,0,0,1-.414.522A7.727,7.727,0,0,1,104.214,136.592Zm-11.1-7.008a1.173,1.173,0,0,0,.128.631h0a9.315,9.315,0,0,0,3.46,3.016c1.469.818,5.076,2.6,8.082,2.366l-.4-5.037a28.1,28.1,0,0,1-5.973,0A20.334,20.334,0,0,1,93.116,129.584Zm-.365-.148Z" transform="translate(-0.504 -1.063)"/><path class="c" d="M98.5,131.151h.986a8.477,8.477,0,0,0,8.487-8.487V109.24H90v13.425a8.487,8.487,0,0,0,8.5,8.487Z" transform="translate(-0.474 -0.813)"/><path class="b" d="M107.954,109.226V122.65a8.477,8.477,0,0,1-8.487,8.487h-.986a8.487,8.487,0,0,1-8.5-8.487V109.226h17.959m0-.986H89.986a.986.986,0,0,0-.986.986V122.65a9.512,9.512,0,0,0,9.5,9.5h.986a9.512,9.512,0,0,0,9.5-9.5V109.226a.986.986,0,0,0-.986-.986Z" transform="translate(-0.459 -0.799)"/><path class="b" d="M99.23,123.132a9.374,9.374,0,0,1-1.252-.079.8.8,0,0,1-.611-.4c-.66-1.094.72-4.987,1.341-6.614a.525.525,0,1,1,.986.365c-.986,2.543-1.607,5.056-1.449,5.658a10.713,10.713,0,0,0,2.228,0,.5.5,0,1,1,.128.986A9.628,9.628,0,0,1,99.23,123.132Zm-.986-.986Z" transform="translate(-0.577 -0.903)"/><path class="b" d="M86.981,156.594a.513.513,0,0,1-.5-.463l-.828-9.019a.5.5,0,0,1,.453-.552.522.522,0,0,1,.562.463l.828,9.019a.513.513,0,0,1-.463.552Z" transform="translate(-0.411 -1.288)"/><path class="b" d="M113.073,156.594h0a.513.513,0,0,1-.463-.552l.828-9.019a.513.513,0,0,1,.552-.463.5.5,0,0,1,.463.552l-.828,9.019A.513.513,0,0,1,113.073,156.594Z" transform="translate(-0.798 -1.288)"/></g></svg>