<svg xmlns="http://www.w3.org/2000/svg" width="384" height="260" viewBox="0 0 384 260"><defs><style>.a{fill:#fff;}.b{fill:#231f20;}.c{fill:#68b64d;}.d{fill:#d1d3d4;}</style></defs><g transform="translate(-49.233 -45.781)"><path class="a" d="M192.277,106.39s.936-14.359,0-18.329-6.568-13.585-8.44-12.885-2.11,3.521,0,7.267c0,0-11.961-9.727-16.531-9.552s-7.142,6.043-6.443,8.852,11.237,7.679,11.962,9.989,2.572,18.542,2.572,18.542" transform="translate(27.722 6.739)"/><path class="b" d="M175.519,111.084a.637.637,0,0,1-.624-.549c0-.162-1.873-16.144-2.5-18.442-.275-.911-3.059-2.747-5.294-4.22-3.209-2.135-6.243-4.145-6.667-5.856a8.74,8.74,0,0,1,1.823-6.643,6.892,6.892,0,0,1,5.144-2.984c3.633-.137,11.237,5.319,14.921,8.1a6.243,6.243,0,0,1-.25-4.058,2.759,2.759,0,0,1,1.661-1.711,1.5,1.5,0,0,1,1.249.15c2.585,1.373,7.192,9.714,8,13.173.949,4.02,0,17.917,0,18.5a.612.612,0,0,1-.662.587.624.624,0,0,1-.574-.662c0-.15.911-14.309,0-18.142-1.011-4.308-6.368-12.623-7.629-12.486a1.573,1.573,0,0,0-.911.974c-.45,1.249,0,3.2,1.249,5.406a.612.612,0,0,1-.137.774.624.624,0,0,1-.8,0c-3.271-2.672-12.486-9.552-16.107-9.414a5.706,5.706,0,0,0-4.245,2.5,7.629,7.629,0,0,0-1.611,5.594c.312,1.249,3.546,3.384,6.156,5.107,3.346,2.223,5.419,3.658,5.793,4.919.7,2.4,2.5,17.98,2.6,18.641a.637.637,0,0,1-.549.7Z" transform="translate(27.624 6.614)"/><path class="a" d="M210.64,267.472,386.2,226.556V198.3L210.64,216.33Z" transform="translate(40.124 37.672)"/><path class="b" d="M210.769,268.246a.649.649,0,0,1-.4-.137.674.674,0,0,1-.25-.5V216.417a.649.649,0,0,1,.587-.649l175.552-18.017a.612.612,0,0,1,.5.162.649.649,0,0,1,.212.474v28.256a.649.649,0,0,1-.5.637L210.919,268.234Zm.649-51.192v49.756l174.266-40.617V199.149Z" transform="translate(39.995 37.534)"/><path class="a" d="M56.42,175.34v30.9L248.978,273.18V211.836Z" transform="translate(1.787 31.964)"/><path class="b" d="M249.1,273.945h-.212L56.335,206.984a.649.649,0,0,1-.425-.612v-30.9a.687.687,0,0,1,.225-.5.649.649,0,0,1,.537-.137l192.558,36.5a.649.649,0,0,1,.524.637v61.343a.687.687,0,0,1-.275.524.662.662,0,0,1-.375.112ZM57.2,205.922l191.259,66.512V212.5L57.2,176.293Z" transform="translate(1.66 31.835)"/><path class="b" d="M338.586,221.382s17.58-102.946,2.809-117.517S259.113,86.572,244,90.493,217.31,198.608,217.31,198.608Z" transform="translate(41.782 10.61)"/><path class="b" d="M338.713,222.084H338.6L217.3,199.3a.624.624,0,0,1-.5-.687c.474-4.27,11.787-104.644,27.157-108.627,14.1-3.658,82.632-1.636,98,13.535,14.821,14.621-1.91,113.846-2.634,118.054a.612.612,0,0,1-.262.412A.587.587,0,0,1,338.713,222.084ZM218.1,198.186l120.064,22.55c1.436-8.615,16.669-102.759,2.884-116.344-6.243-6.168-23.811-11.063-48.2-13.447-19.441-1.9-40.8-1.8-48.62.225-4.145,1.074-10.725,11.5-18.567,55.038C221.371,170.305,218.549,194.2,218.1,198.186Z" transform="translate(41.655 10.495)"/><path class="a" d="M432.458,200.1v10.551l-180.7,37.633L49.74,179.116V170.7Z" transform="translate(0.126 30.811)"/><path class="b" d="M251.886,249.036a.562.562,0,0,1-.2,0L49.665,179.865a.637.637,0,0,1-.425-.587v-8.453a.624.624,0,0,1,.674-.624l382.718,29.4a.624.624,0,0,1,.574.624V210.78a.624.624,0,0,1-.5.612l-180.683,37.62Zm-201.4-70.246,201.448,68.972,180.022-37.458v-9.452L50.489,171.5Z" transform="translate(0.002 30.686)"/><path class="c" d="M310.977,106.655c5.906,21.526-8,122.736-8,122.736l-81.346-31.8s16.706-20.077-3.271-62.155c-8.166-17.206.237-26.22,5.931-31.065C229.069,100.3,305.058,85.13,310.977,106.655Z" transform="translate(41.198 12.21)"/><path class="a" d="M181.354,152.17l251.1,52.541-180.7,34.823L49.74,175.306Z" transform="translate(0.126 26.261)"/><path class="b" d="M251.888,240.3H251.7L49.666,176.045a.649.649,0,0,1,.087-1.249l131.614-23.124a.512.512,0,0,1,.237,0l251.116,52.541a.649.649,0,0,1,.512.637.662.662,0,0,1-.524.624l-180.7,34.811ZM52.563,175.608l199.362,63.378,177.387-34.174L181.467,152.959Z" transform="translate(0 26.133)"/><path class="a" d="M248.386,185.341S187.218,166,186.157,166s-78.387,13.273-78.387,13.273l64.215,21.963Z" transform="translate(14.552 29.723)"/><path class="b" d="M172.115,202.036a.587.587,0,0,1-.212,0l-64.215-21.975a.637.637,0,0,1-.437-.649.649.649,0,0,1,.537-.587c7.916-1.361,77.413-13.285,78.5-13.285s48.046,14.8,62.43,19.341a.612.612,0,0,1,.449.637.637.637,0,0,1-.512.6l-76.414,15.907ZM110.5,179.562l61.655,21.1,73.817-15.4c-18.13-5.719-58.2-18.3-59.745-18.542-1.261.162-48.708,8.266-75.727,12.9Z" transform="translate(14.422 29.609)"/><path class="d" d="M159.181,192.407a.562.562,0,0,1-.25,0l-34.049-15.32a.624.624,0,0,1,.175-1.186l39.818-5.606a.574.574,0,0,1,.325,0l35.423,15.058A.612.612,0,0,1,201,186a.624.624,0,0,1-.537.537l-41.2,5.868Zm-31.814-15.682,31.914,14.346,38.794-5.506-33.2-14.122Z" transform="translate(18.715 30.789)"/><path class="a" d="M159.2,197.422l76.751-9.04-.35-6.892-76.4,10.226Z" transform="translate(27.337 33.567)"/><path class="b" d="M159.329,198.195a.7.7,0,0,1-.437-.162.649.649,0,0,1-.212-.487v-5.706a.637.637,0,0,1,.562-.637l76.4-10.2a.624.624,0,0,1,.724.6l.362,6.892a.649.649,0,0,1-.574.674L159.4,198.22Zm.637-5.793v4.42l75.44-8.89-.287-5.594Z" transform="translate(27.207 33.444)"/><path class="a" d="M174.879,215.241,160.819,113.094,96.13,109.81l14.534,83.468Z" transform="translate(11.658 15.792)"/><path class="b" d="M175.007,216.017a.587.587,0,0,1-.212,0L110.58,194.042a.624.624,0,0,1-.425-.5L95.622,110.049a.649.649,0,0,1,.15-.537.637.637,0,0,1,.512-.212l64.739,3.271a.662.662,0,0,1,.612.562l14.059,102.147a.649.649,0,0,1-.237.587A.612.612,0,0,1,175.007,216.017Zm-63.678-23.1,62.867,21.5L160.349,113.833l-63.341-3.209Z" transform="translate(11.529 15.665)"/><path class="d" d="M190.3,181.692h-.212L168.865,174.2a.626.626,0,1,1,.1-1.249l12.136-1.9a.649.649,0,0,1,.312,0l21.676,7.916a.624.624,0,0,1,.412.662.612.612,0,0,1-.562.537l-12.486,1.411Zm-18.729-7.816,18.829,6.555,9.751-1.086-19.029-6.955Z" transform="translate(29.596 30.985)"/><path class="c" d="M309.039,117.307l4.482,36.1c2.7,21.863,4.545,42.827-3.883,48.1s-81.158,5.456-81.158,5.456a56.448,56.448,0,0,0,.949-18.729s59.932-8.565,59.271-14.546-19.653-46.747-19.977-56.249S297.49,110.427,309.039,117.307Z" transform="translate(44.559 16.141)"/><path class="c" d="M236.453,104.372S196.311,137.06,196.6,130.88c.15-3.259-.724-35.51-.724-35.51l-25.059,1.1s-9.9,52.89-1.249,65.913c10.963,16.481,26.795,11.15,47.9-1.149,27.02-15.757,33.712-22.475,33.712-22.475Z" transform="translate(29.032 12.245)"/><path class="a" d="M237.19,174.372s-12.486.524-14.147-1.835-4.358-5.294-5.956-5.581-21.151,1.96-19.977,4,9.627.287,9.627.287-7.342,1.873-7,4.32,2.035,2.185,4.845,1.249,9.589-2.572,9.589-2.572-10.376,4.807-10.538,7.292,4.845,1.249,11.9-2.5c0,0-8.216,5.169-5.669,6.692s8.528-1.623,8.528-1.623,2.822,4.557,6.63,5.694,11.737,1.036,11.737,1.036S240.511,182.413,237.19,174.372Z" transform="translate(36.748 29.961)"/><path class="b" d="M236.392,191.552c-1.785,0-8.116-.075-11.475-1.074s-5.793-4.22-6.667-5.481c-1.623.787-6.243,2.8-8.64,1.361a1.561,1.561,0,0,1-.8-1.323,4.508,4.508,0,0,1,1.611-2.734c-2.7,1.086-5.332,1.748-6.605.949a1.723,1.723,0,0,1-.749-1.623c.1-1.561,2.972-3.583,5.831-5.219-1.523.4-3.034.824-4.033,1.149-1.823.6-3.434,1.036-4.532.35a2.747,2.747,0,0,1-1.149-2.123c-.175-1.249.924-2.26,2.335-3.072-2.185.087-4.258-.175-4.894-1.324a1.011,1.011,0,0,1,.087-1.1c1.636-2.272,19.128-4.108,20.639-3.833,2.035.362,4.994,3.971,6.355,5.831,1,1.436,8.553,1.785,13.6,1.573a.637.637,0,0,1,.624.4c3.384,8.2-.337,16.569-.5,16.918a.637.637,0,0,1-.574.375Zm-17.917-8.028a.649.649,0,0,1,.549.312s2.747,4.37,6.243,5.406c3.171.949,9.439,1.024,11.125,1.024.649-1.661,3.009-8.49.487-15.108-2.922.1-12.586.25-14.246-2.123-1.948-2.772-4.383-5.107-5.544-5.319-1.935-.35-17.48,1.785-19.228,3.209.9.787,5.144.562,8.815-.187a.624.624,0,0,1,.749.474.637.637,0,0,1-.462.774c-2.734.7-6.7,2.335-6.53,3.608a1.6,1.6,0,0,0,.549,1.249c.637.4,2.123,0,3.459-.474,2.809-.924,9.352-2.5,9.639-2.585a.657.657,0,0,1,.412,1.249c-4.82,2.235-10.076,5.444-10.164,6.755,0,.325.1.4.162.449.7.449,3.746.187,10.788-3.633a.649.649,0,0,1,.649,1.111c-2.822,1.785-5.868,4.345-5.856,5.369,0,.062,0,.137.175.237,1.835,1.1,6.33-.812,7.9-1.648a.662.662,0,0,1,.325-.15Z" transform="translate(36.61 29.836)"/><path class="b" d="M236.806,188.3a.637.637,0,0,1-.112-1.249l48.92-8.515a241.481,241.481,0,0,1-8.116-25.883c-4.919-19.69-5.669-34.648-2.235-44.475a.624.624,0,0,1,.812-.4.649.649,0,0,1,.4.824c-7.991,22.912,10.438,69.734,10.625,70.2a.612.612,0,0,1,0,.549.661.661,0,0,1-.449.325l-49.694,8.653Z" transform="translate(46.484 15.298)"/><path class="b" d="M211.672,236.3a.637.637,0,0,1-.637-.637V222.3a.649.649,0,1,1,1.249,0v13.36A.637.637,0,0,1,211.672,236.3Z" transform="translate(40.216 43.433)"/><path class="b" d="M227.367,168.643a.637.637,0,0,1-.637-.612c-.437-9.04-2.872-16.094-4.994-22.325a50.559,50.559,0,0,1-3.059-11.425c-.087-.887-.175-1.736-.25-2.5-.7-6.967-1.249-12.486,2.884-24.847a.649.649,0,0,1,.812-.412.637.637,0,0,1,.4.812c-4.033,12.124-3.521,17.243-2.809,24.323.075.824.162,1.673.237,2.56a49.721,49.721,0,0,0,3,11.125c2.185,6.318,4.657,13.46,5.094,22.687a.649.649,0,0,1-.612.674Z" transform="translate(41.939 15)"/><ellipse class="a" cx="20.527" cy="6.181" rx="20.527" ry="6.181" transform="translate(285.138 235.953)"/><path class="b" d="M258.836,211.377c-10.263,0-21.226-2.4-21.226-6.83s10.913-6.817,21.226-6.817,21.226,2.385,21.226,6.817S269.112,211.377,258.836,211.377Zm0-12.361c-11.712,0-19.89,2.909-19.89,5.531s8.178,5.544,19.89,5.544,19.89-2.922,19.89-5.544S270.56,199.016,258.836,199.016Z" transform="translate(46.829 37.586)"/><path class="a" d="M243.236,189.757l-.5.087a6.043,6.043,0,0,0-3.746,2.135,5.244,5.244,0,0,0-.125,5.544c2.173,3.933,7.492,4.994,11.574,5.406a3.745,3.745,0,0,0,1.723-.137,1.436,1.436,0,0,0,.961-1.324,1.411,1.411,0,0,0-.8-1.1,4.158,4.158,0,0,0-1.361-.375,26.069,26.069,0,0,1-7.492-1.91c-1.361-.687-3.259-2.26-2.272-3.946a3.271,3.271,0,0,1,1.436-1.249c2.335-1.111,4.557-.275,6.867.412a1.249,1.249,0,0,0,.524.075c.449,0,.7-.587.662-1.036-.075-1.011-1.074-1.673-2.023-2.035A10.525,10.525,0,0,0,243.236,189.757Z" transform="translate(46.959 35.58)"/><path class="b" d="M251.226,203.721a7.351,7.351,0,0,1-.749,0c-6.318-.6-10.276-2.5-12.074-5.731a5.868,5.868,0,0,1,.162-6.243,6.843,6.843,0,0,1,4.183-2.385l.524-.087h0a11.237,11.237,0,0,1,5.681.612c1.486.574,2.347,1.486,2.435,2.585a1.561,1.561,0,0,1-1.249,1.736,2.148,2.148,0,0,1-.8-.1l-.6-.187c-2-.6-3.883-1.174-5.793-.262a2.5,2.5,0,0,0-1.161.961,1.249,1.249,0,0,0-.137.986,4.245,4.245,0,0,0,2.135,2.06,21.75,21.75,0,0,0,6.418,1.7l.949.15a4.5,4.5,0,0,1,1.561.449,1.91,1.91,0,0,1-.237,3.583A3.5,3.5,0,0,1,251.226,203.721Zm-7.754-13.21-.474.075a5.519,5.519,0,0,0-3.4,1.885,4.582,4.582,0,0,0-.075,4.857c1.586,2.859,5.207,4.52,11.075,5.069a3.209,3.209,0,0,0,1.423-.087.637.637,0,0,0,.1-1.249,3.747,3.747,0,0,0-1.161-.325l-.936-.15a22.788,22.788,0,0,1-6.8-1.81,5.544,5.544,0,0,1-2.784-2.847,2.5,2.5,0,0,1,.262-2,3.746,3.746,0,0,1,1.711-1.486c2.36-1.124,4.582-.45,6.73.2l.6.187a1.1,1.1,0,0,0,.25,0,.449.449,0,0,0,.112-.35c-.062-.8-1.149-1.249-1.611-1.486a9.988,9.988,0,0,0-4.994-.537Z" transform="translate(46.822 35.463)"/><path class="a" d="M243.75,186.36s3.846,19.178,4.158,20.327,10.526,4.12,16.631,1.249l6.33-19.6Z" transform="translate(48.355 34.767)"/><path class="b" d="M258.248,209.926a25.609,25.609,0,0,1-9.477-1.785c-.824-.387-1.249-.749-1.348-1.161-.312-1.161-4.02-19.59-4.17-20.365a.662.662,0,0,1,.15-.562.637.637,0,0,1,.524-.212l27.119,1.973a.637.637,0,0,1,.562.837l-6.318,19.6a.674.674,0,0,1-.35.387,15.808,15.808,0,0,1-6.692,1.286Zm-13.572-22.737c1.373,6.8,3.746,18.6,3.983,19.453.662.774,9.664,3.5,15.483.949l5.993-18.554Z" transform="translate(48.228 34.637)"/><ellipse class="b" cx="5.881" cy="13.597" rx="5.881" ry="13.597" transform="translate(291.879 227.011) rotate(-87.65)"/><path class="b" d="M258.543,194.6h-1.349a25.6,25.6,0,0,1-9.776-2.173c-2.759-1.336-4.233-3.084-4.158-4.919s1.686-3.446,4.545-4.545a28.218,28.218,0,0,1,19.715.812c2.759,1.323,4.233,3.072,4.158,4.907C271.541,192.1,265.873,194.6,258.543,194.6ZM256.4,182.783a23.136,23.136,0,0,0-8.141,1.311c-2.335.9-3.746,2.148-3.746,3.446s1.249,2.647,3.459,3.746a24.3,24.3,0,0,0,9.3,2.048c7.754.325,13.073-2.185,13.185-4.72h0c0-1.249-1.249-2.66-3.459-3.746a24.348,24.348,0,0,0-9.3-2.06Z" transform="translate(48.233 33.587)"/><path class="a" d="M248.618,48.013s-13.2.462-17.068,6.842-3.346,15.82-8.328,21.95-11.087,19.266-7.929,26,36.009,8.515,53.215.712,18.067-21.75,16.769-30.615S277.685,39.96,248.618,48.013Z" transform="translate(41.065 0.151)"/><path class="b" d="M239.587,109.379H236.74c-9.3-.262-19.977-2.023-21.888-6.156-3.221-6.855,2.684-20.115,8-26.657,2.66-3.284,3.746-7.629,4.757-11.849a35.661,35.661,0,0,1,3.521-9.989c3.883-6.418,16.307-7.1,17.48-7.154,9.914-2.734,18.167-2.01,24.535,2.135,9.427,6.156,12.124,18.329,12.848,23.286,1.461,9.989-.325,23.636-17.143,31.215C261.6,107.493,250.824,109.379,239.587,109.379Zm19.977-62.255a40.466,40.466,0,0,0-10.713,1.6h-.137c-.137,0-12.91.524-16.569,6.543a34.26,34.26,0,0,0-3.371,9.689c-1.061,4.345-2.173,8.84-4.994,12.324-5.219,6.443-10.725,19.191-7.829,25.346,2.784,5.931,34.811,8.366,52.378.4,16.107-7.3,17.817-20.315,16.419-29.966-.7-4.782-3.3-16.531-12.3-22.412a23.049,23.049,0,0,0-12.836-3.521Zm-10.875,1Z" transform="translate(40.944 0.042)"/><path class="b" d="M266.256,106.71s-10.725,26.22-19.653,25.5-8.6-20.24-8.6-20.24Z" transform="translate(46.925 15.068)"/><path class="b" d="M247.1,132.965h-.412c-9.389-.762-9.24-20.052-9.227-20.864a.6.6,0,0,1,.5-.6l28.318-5.269a.587.587,0,0,1,.587.212.624.624,0,0,1,.1.637C266.528,108.143,256.264,132.965,247.1,132.965Zm-8.4-20.352c0,3.022.624,18.492,8.091,19.1,6.63.549,15.258-16.232,18.579-24.06Z" transform="translate(46.791 14.946)"/><path class="a" d="M242.5,105.938l-2.347,18.242s3.009,7.492,15.27,6.33c7.566-.749,13.048-11.587,13.048-11.587l2.422-35.772s-17.006-9.364-26.807-25.571c0,0-8.066,13.31-13.959,12.011,0,0-1.91,17.967.225,27.107S242.5,105.938,242.5,105.938Z" transform="translate(44.773 2.933)"/><path class="b" d="M252.857,131.381c-10.363,0-13.1-6.543-13.223-6.842a.674.674,0,0,1,0-.312l2.31-17.593c-2.385-.225-10.176-1.611-12.049-9.677-2.135-9.14-.312-26.582-.225-27.319a.612.612,0,0,1,.25-.437.649.649,0,0,1,.5-.1c4.495,1,11.112-8.128,13.285-11.724a.649.649,0,0,1,1.074,0c9.627,15.87,26.345,25.259,26.508,25.346a.649.649,0,0,1,.325.587l-2.422,35.772a.663.663,0,0,1-.075.237c-.225.462-5.718,11.162-13.535,11.924a25.6,25.6,0,0,1-2.722.137Zm-12-7.167c.474,1.024,3.746,6.855,14.559,5.793,6.742-.662,11.9-9.989,12.486-11.137l2.4-35.248c-2.435-1.423-17.018-10.363-26.1-24.735-1.873,2.859-8.128,11.824-13.4,11.524-.312,3.271-1.586,18.292.262,26.22,2,8.54,11.162,8.74,11.549,8.74a.624.624,0,0,1,.612.712Z" transform="translate(44.654 2.812)"/><path class="b" d="M238.87,106.143a12.923,12.923,0,0,0,11.237-4.32c4.882-5.456,3.746-6.443,3.746-6.443a31.939,31.939,0,0,1-13.734,1.174Z" transform="translate(47.142 12.27)"/><path class="b" d="M240.493,106.993a9.279,9.279,0,0,1-1.611-.125.624.624,0,0,1-.512-.687l1.249-9.589a.612.612,0,0,1,.7-.537,31.452,31.452,0,0,0,13.472-1.149.649.649,0,0,1,.637.125c.175.162.537.649.112,1.848a19.889,19.889,0,0,1-3.846,5.469A13.585,13.585,0,0,1,240.493,106.993Zm-.8-1.249a12.286,12.286,0,0,0,10.076-4.2c2.622-2.934,3.409-4.47,3.646-5.182a33.412,33.412,0,0,1-12.623,1.011Z" transform="translate(47.017 12.144)"/><path class="a" d="M244.059,73.13s-5.906,9.614-4.358,11.237,5.681.337,5.681.337" transform="translate(47.284 6.799)"/><path class="b" d="M242.428,85.852a4.258,4.258,0,0,1-3.047-.974c-1.711-1.736,2.41-8.927,4.258-11.949a.625.625,0,0,1,1.061.662c-3.009,4.894-5.082,9.751-4.433,10.4,1.049,1.061,4.008.487,5.057.175a.624.624,0,0,1,.774.412.637.637,0,0,1-.412.787A12.849,12.849,0,0,1,242.428,85.852Z" transform="translate(47.168 6.675)"/><ellipse class="b" cx="1.548" cy="2.185" rx="1.548" ry="2.185" transform="translate(297.055 77.022) rotate(-7.11)"/><ellipse class="b" cx="2.185" cy="1.548" rx="2.185" ry="1.548" transform="translate(282.305 81.515) rotate(-79.98)"/><path class="b" d="M244.272,90.114a8.053,8.053,0,0,1-7.7-4.757.6.6,0,0,1,.075-.574.612.612,0,0,1,.512-.262c14.172,0,14.246.075,14.484.337a.6.6,0,0,1,.162.487.525.525,0,0,1-.112.3c-.125.175-3.059,4.2-6.593,4.445Zm-6.093-4.345a7.017,7.017,0,0,0,6.83,3.1c2.01-.137,3.9-1.885,4.907-3-2.335-.05-7.716-.075-11.737-.075ZM251.189,85.282ZM251.189,85.282Z" transform="translate(46.559 9.584)"/><path class="a" d="M269.853,79.9s4.882-20.951-4.183-29.08-23.861-2.784-23.861-2.784,16.631-1.036,20.065,6.48.674,28.93.674,28.93Z" transform="translate(47.873 0.131)"/><path class="b" d="M262.674,84.2a.587.587,0,0,1-.375-.125.637.637,0,0,1-.25-.587c0-.212,2.7-21.338-.612-28.593-3.221-7.03-19.3-6.118-19.465-6.118a.618.618,0,0,1-.25-1.2c.612-.225,15.27-5.394,24.5,2.9s4.57,28.817,4.358,29.691a.624.624,0,0,1-.325.425l-7.317,3.546A.624.624,0,0,1,262.674,84.2Zm-15.72-36.634c5.331.312,13.26,1.673,15.62,6.817,3.034,6.655,1.373,23.536.849,28.131l6.006-2.922c.537-2.5,4.07-20.9-4.045-28.181C259.852,46.442,251.961,46.7,246.954,47.565Zm23.024,32.463Z" transform="translate(47.748 0)"/><ellipse class="a" cx="12.152" cy="9.136" rx="12.152" ry="9.136" transform="matrix(0.19, -0.982, 0.982, 0.19, 303.96, 96.947)"/><path class="b" d="M262.777,93.062a7.7,7.7,0,0,1-1.411-.125c-5.307-1.011-8.54-7.492-7.217-14.409a14.983,14.983,0,0,1,4.445-8.291,8.74,8.74,0,0,1,7.566-2.5c5.294,1.011,8.528,7.492,7.2,14.409h0C272.141,88.467,267.559,93.062,262.777,93.062Zm1.948-24.16a7.954,7.954,0,0,0-5.294,2.26,13.735,13.735,0,0,0-4.045,7.6c-1.249,6.243,1.586,12.061,6.243,12.935s9.352-3.484,10.551-9.739h0c1.186-6.243-1.6-12.061-6.243-12.935a5.581,5.581,0,0,0-1.236-.162Z" transform="translate(50.866 5.433)"/><path class="b" d="M247.774,95.915a.624.624,0,0,1,0-1.249c4.433-.237,11.974-1.186,13.273-2.747,1.5-1.823,2.5-7.654,2.722-9.739a.629.629,0,1,1,1.249.15c0,.325-.961,7.9-3.022,10.376s-12.948,3.121-14.184,3.209Z" transform="translate(49.2 8.867)"/><rect class="a" width="10.313" height="3.459" rx="1.39" transform="translate(292.678 102.685) rotate(-5.16)"/><path class="b" d="M246.166,95.611a2.36,2.36,0,0,1-2.335-2.148,2.335,2.335,0,0,1,2.123-2.5l6.83-.624a2.385,2.385,0,0,1,1.723.537,2.36,2.36,0,0,1-1.249,4.158h0l-6.83.612Zm6.992-1.249Zm-.15-2.822H252.9l-6.83.612a1.124,1.124,0,0,0-1,1.249,1.086,1.086,0,0,0,.4.749,1.036,1.036,0,0,0,.8.262l6.83-.624a1.111,1.111,0,0,0,1.011-1.249,1.174,1.174,0,0,0-.4-.749,1.111,1.111,0,0,0-.7-.25Z" transform="translate(48.374 11.022)"/><path class="a" d="M128.011,52.56c-20.165,0-36.521,12.149-36.521,27.119,0,8.828,5.681,16.669,14.471,21.613l8.166,11.562v-8.091a47.446,47.446,0,0,0,13.884,2.035c20.165,0,36.534-12.136,36.534-27.119S148.176,52.56,128.011,52.56Z" transform="translate(10.505 1.685)"/><path class="d" d="M114.249,113.6a.612.612,0,0,1-.512-.262l-8.091-11.412C96.331,96.6,91,88.556,91,79.8c0-15.333,16.656-27.744,37.133-27.744S165.266,64.546,165.266,79.8s-16.656,27.744-37.133,27.744a48.17,48.17,0,0,1-13.26-1.873v7.254a.624.624,0,0,1-.437.6A.487.487,0,0,1,114.249,113.6Zm13.884-60.294c-19.79,0-35.884,11.887-35.884,26.5,0,8.391,5.144,16.007,14.134,21.076a.574.574,0,0,1,.212.175l7.03,9.989v-6.156a.637.637,0,0,1,.25-.5.687.687,0,0,1,.562-.1,46.672,46.672,0,0,0,13.734,2.01c19.79,0,35.885-11.887,35.885-26.5s-16.132-26.5-35.922-26.5Z" transform="translate(10.383 1.561)"/><circle class="d" cx="3.121" cy="3.121" r="3.121" transform="translate(117.864 78.206)"/><circle class="d" cx="3.121" cy="3.121" r="3.121" transform="translate(135.394 78.206)"/><circle class="d" cx="3.121" cy="3.121" r="3.121" transform="translate(152.912 78.206)"/><path class="a" d="M300.13,143h-.062a.662.662,0,0,1-.587-.7c2.5-28.98,12.424-39.331,12.836-39.755a.649.649,0,0,1,.924.9c-.1.1-9.989,10.526-12.486,38.969a.637.637,0,0,1-.624.587Z" transform="translate(62.209 13.998)"/></g></svg>