<svg xmlns="http://www.w3.org/2000/svg" width="45" height="32" viewBox="0 0 45 32"><defs><style>.a{fill:#68b64d;}</style></defs><path class="a" d="M37.8,16.15a7,7,0,0,0,.45-2.471A6.806,6.806,0,0,0,31.5,6.821a6.642,6.642,0,0,0-3.748,1.157A11.211,11.211,0,0,0,18,2.25,11.337,11.337,0,0,0,6.75,13.679c0,.193.007.386.014.579A10.312,10.312,0,0,0,10.125,34.25H36a9.156,9.156,0,0,0,1.8-18.1ZM27.661,20.536h-4.6v8a1.137,1.137,0,0,1-1.125,1.143H18.563a1.137,1.137,0,0,1-1.125-1.143v-8h-4.6a1.143,1.143,0,0,1-.795-1.95l7.411-7.529a1.116,1.116,0,0,1,1.589,0l7.411,7.529a1.145,1.145,0,0,1-.795,1.95Z" transform="translate(0 -2.25)"/></svg>