<svg xmlns="http://www.w3.org/2000/svg" width="24" height="22" viewBox="0 0 24 22"><defs><style>.a{fill:#101010;}</style></defs><g transform="translate(-64.267 -80.334)"><path class="a" d="M87.328,82.382h-14.3a2.933,2.933,0,0,0-5.592,0H65.206a.956.956,0,0,0,0,1.912h2.232a2.933,2.933,0,0,0,5.592,0h14.3a.956.956,0,0,0,0-1.912ZM70.234,84.43a1.092,1.092,0,1,1,1.072-1.092A1.083,1.083,0,0,1,70.234,84.43Z" transform="translate(0)"/><path class="a" d="M87.328,210.915H85.1a2.932,2.932,0,0,0-5.592,0h-14.3a.956.956,0,0,0,0,1.912H79.5a2.933,2.933,0,0,0,5.592,0h2.232a.956.956,0,0,0,0-1.912ZM82.3,212.963a1.092,1.092,0,1,1,1.072-1.092A1.083,1.083,0,0,1,82.3,212.963Z" transform="translate(0 -120.537)"/><path class="a" d="M87.328,339.448H77.052a2.933,2.933,0,0,0-5.592,0H65.206a.956.956,0,0,0,0,1.912H71.46a2.933,2.933,0,0,0,5.592,0H87.328a.956.956,0,0,0,0-1.912ZM74.256,341.5a1.092,1.092,0,1,1,1.072-1.092A1.083,1.083,0,0,1,74.256,341.5Z" transform="translate(0 -241.073)"/></g></svg>