<svg xmlns="http://www.w3.org/2000/svg" width="16" height="16" viewBox="0 0 16 16"><defs><style>.a{fill:#a0a0a0;}</style></defs><path class="a" d="M8056.5-6246h-13a1.5,1.5,0,0,1-1.5-1.5v-7.5h16v7.5A1.5,1.5,0,0,1,8056.5-6246Zm-7.349-3.043-.478.485a3.024,3.024,0,0,0,1.848.627,3.037,3.037,0,0,0,3.033-3.034,3.038,3.038,0,0,0-3.033-3.036,3.039,3.039,0,0,0-3.036,3.036h-1.011l1.349,1.347,1.349-1.347h-1.013a2.364,2.364,0,0,1,2.362-2.36,2.361,2.361,0,0,1,2.358,2.36,2.361,2.361,0,0,1-2.358,2.36A2.369,2.369,0,0,1,8049.151-6249.043Zm8.809-6.957h-7.46v-6h4.419a1.5,1.5,0,0,1,1.424,1.025l1.579,4.744a.663.663,0,0,1,.029.157l0,.019c0,.018,0,.036.007.053Zm-8.459,0h-7.46c0-.024.007-.05.01-.074v-.02a.7.7,0,0,1,.026-.137l1.581-4.744a1.494,1.494,0,0,1,1.422-1.025h4.418v6Z" transform="translate(-8042 6262)"/></svg>