<svg xmlns="http://www.w3.org/2000/svg" width="16" height="16" viewBox="0 0 16 16"><defs><style>.a{fill:#f5f5f5;opacity:0;}.b{fill:#6e6e6e;}</style></defs><g transform="translate(-235 -118)"><rect class="a" width="16" height="16" transform="translate(235 118)"/><path class="b" d="M21.064,8.277a4.027,4.027,0,0,1-5.708,5.051l-1.114,1.216-.812.888L8.1,21.252a1.243,1.243,0,0,1-1.758,0l-.439-.439a1.243,1.243,0,0,1,0-1.758l6.068-5.082L12.9,13.2l1.186-.993a4.031,4.031,0,0,1,4.775-6.12L16.249,8.659l2.2,2.2,2.617-2.581Zm-13.7,11.4a.622.622,0,1,0,0,.88A.622.622,0,0,0,7.365,19.674Z" transform="translate(229.628 112.384)"/></g></svg>