<svg id="Group_2793" data-name="Group 2793" xmlns="http://www.w3.org/2000/svg" width="48" height="48" viewBox="0 0 48 48">
  <rect id="Rectangle_9265" data-name="Rectangle 9265" width="48" height="48" fill="#fff" opacity="0"/>
  <g id="Icon_feather-home" data-name="Icon feather-home" transform="translate(-2.5 -3)">
    <g id="Path_8805" data-name="Path 8805" transform="translate(0)" fill="none" stroke-linecap="round" stroke-linejoin="round">
      <path d="M4.5,19.8,26.1,3,47.7,19.8V46.2A4.8,4.8,0,0,1,42.9,51H9.3a4.8,4.8,0,0,1-4.8-4.8Z" stroke="none"/>
      <path d="M 26.10000228881836 8.06744384765625 L 8.500003814697266 21.7563362121582 L 8.500003814697266 46.20000076293945 C 8.500003814697266 46.64112091064453 8.858882904052734 47 9.300003051757813 47 L 42.90000152587891 47 C 43.34112167358398 47 43.70000457763672 46.64112091064453 43.70000457763672 46.20000076293945 L 43.70000457763672 21.7563362121582 L 26.10000228881836 8.06744384765625 M 26.10000228881836 3 L 47.70000076293945 19.79999923706055 L 47.70000076293945 46.20000076293945 C 47.70000076293945 48.85097122192383 45.55097198486328 51 42.90000152587891 51 L 9.300003051757813 51 C 6.649032592773438 51 4.500003814697266 48.85097122192383 4.500003814697266 46.20000076293945 L 4.500003814697266 19.79999923706055 L 26.10000228881836 3 Z" stroke="none" fill="#68b64d"/>
    </g>
    <path id="Path_8806" data-name="Path 8806" d="M13.5,39.893V18H27.9V39.893" transform="translate(5.4 9)" fill="none" stroke="#68b64d" stroke-linecap="round" stroke-linejoin="round" stroke-width="4"/>
  </g>
</svg>
