<svg xmlns="http://www.w3.org/2000/svg" width="20" height="20" viewBox="0 0 20 20"><defs><style>.a{fill:#fff;opacity:0;}.b{fill:#101010;}</style></defs><g transform="translate(24084 7593)"><rect class="a" width="20" height="20" transform="translate(-24084 -7593)"/><g transform="translate(-24082.395 -7593)"><path class="b" d="M16.533,30.458a1.887,1.887,0,0,0,1.925-2.122H14.6A1.888,1.888,0,0,0,16.533,30.458Z" transform="translate(-8.674 -10.77)"/><path class="b" d="M22.3,19.107c-.758-1.04-2.249-1.649-2.249-6.305,0-4.779-2.027-6.7-3.917-7.161-.177-.046-.305-.108-.305-.3V5.19a1.2,1.2,0,1,0-2.4,0v.149c0,.19-.128.256-.305.3-1.894.466-3.917,2.382-3.917,7.161,0,4.656-1.491,5.26-2.249,6.305a1.02,1.02,0,0,0,.782,1.629H21.525A1.021,1.021,0,0,0,22.3,19.107Z" transform="translate(-6.761 -3.93)"/></g></g></svg>