<svg xmlns="http://www.w3.org/2000/svg" width="20" height="20" viewBox="0 0 20 20"><defs><style>.a{fill:#666;opacity:0;}.b{fill:#a0a0a0;}</style></defs><g transform="translate(-548 -449)"><rect class="a" width="20" height="20" transform="translate(548 449)"/><path class="b" d="M10,11.25A5.625,5.625,0,1,0,4.375,5.625,5.626,5.626,0,0,0,10,11.25Zm5,1.25H12.848a6.8,6.8,0,0,1-5.7,0H5a5,5,0,0,0-5,5v.625A1.875,1.875,0,0,0,1.875,20h16.25A1.875,1.875,0,0,0,20,18.125V17.5A5,5,0,0,0,15,12.5Z" transform="translate(548 449)"/></g></svg>