<svg xmlns="http://www.w3.org/2000/svg" width="16" height="16" viewBox="0 0 16 16"><defs><style>.a{fill:#a0a0a0;}</style></defs><path class="a" d="M.429,6H15.571A.406.406,0,0,1,16,6.375V14.5A1.618,1.618,0,0,1,14.286,16H1.714A1.618,1.618,0,0,1,0,14.5V6.375A.406.406,0,0,1,.429,6ZM16,4.625V3.5A1.618,1.618,0,0,0,14.286,2H12.571V.375A.406.406,0,0,0,12.143,0H10.714a.406.406,0,0,0-.429.375V2H5.714V.375A.406.406,0,0,0,5.286,0H3.857a.406.406,0,0,0-.429.375V2H1.714A1.618,1.618,0,0,0,0,3.5V4.625A.406.406,0,0,0,.429,5H15.571A.406.406,0,0,0,16,4.625Z"/></svg>