<svg xmlns="http://www.w3.org/2000/svg" width="16" height="16" viewBox="0 0 16 16"><defs><style>.a{fill:#a0a0a0;}</style></defs><path class="a" d="M2,4H1A1,1,0,0,0,0,5V15a1,1,0,0,0,1,1H2a1,1,0,0,0,1-1V5A1,1,0,0,0,2,4ZM15,5V2.414a1,1,0,0,0-.293-.707L13.293.293A1,1,0,0,0,12.586,0H5A1,1,0,0,0,4,1V15a1,1,0,0,0,1,1H15a1,1,0,0,0,1-1V6A1,1,0,0,0,15,5ZM9,13.5a.5.5,0,0,1-.5.5h-1a.5.5,0,0,1-.5-.5v-1a.5.5,0,0,1,.5-.5h1a.5.5,0,0,1,.5.5Zm0-4a.5.5,0,0,1-.5.5h-1A.5.5,0,0,1,7,9.5v-1A.5.5,0,0,1,7.5,8h1a.5.5,0,0,1,.5.5Zm4,4a.5.5,0,0,1-.5.5h-1a.5.5,0,0,1-.5-.5v-1a.5.5,0,0,1,.5-.5h1a.5.5,0,0,1,.5.5Zm0-4a.5.5,0,0,1-.5.5h-1a.5.5,0,0,1-.5-.5v-1a.5.5,0,0,1,.5-.5h1a.5.5,0,0,1,.5.5ZM13.5,6h-8V1.5H12v1a.5.5,0,0,0,.5.5h1Z"/></svg>