<svg xmlns="http://www.w3.org/2000/svg" width="16" height="16" viewBox="0 0 16 16"><defs><style>.a{fill:#68B64D;}</style></defs><path class="a" d="M10.992,3A8,8,0,1,0,19,11,8,8,0,0,0,10.992,3Zm5.544,4.8h-2.36a12.519,12.519,0,0,0-1.1-2.848A6.424,6.424,0,0,1,16.536,7.8ZM11,4.632A11.269,11.269,0,0,1,12.528,7.8H9.472A11.269,11.269,0,0,1,11,4.632ZM4.808,12.6a6.258,6.258,0,0,1,0-3.2h2.7A13.212,13.212,0,0,0,7.4,11a13.212,13.212,0,0,0,.112,1.6Zm.656,1.6h2.36a12.519,12.519,0,0,0,1.1,2.848A6.389,6.389,0,0,1,5.464,14.2Zm2.36-6.4H5.464A6.389,6.389,0,0,1,8.928,4.952,12.519,12.519,0,0,0,7.824,7.8ZM11,17.368A11.269,11.269,0,0,1,9.472,14.2h3.056A11.269,11.269,0,0,1,11,17.368ZM12.872,12.6H9.128A11.77,11.77,0,0,1,9,11a11.668,11.668,0,0,1,.128-1.6h3.744A11.668,11.668,0,0,1,13,11,11.77,11.77,0,0,1,12.872,12.6Zm.2,4.448a12.519,12.519,0,0,0,1.1-2.848h2.36A6.424,6.424,0,0,1,13.072,17.048ZM14.488,12.6A13.212,13.212,0,0,0,14.6,11a13.212,13.212,0,0,0-.112-1.6h2.7a6.258,6.258,0,0,1,0,3.2Z" transform="translate(-3 -3)"/></svg>
