<svg xmlns="http://www.w3.org/2000/svg" width="16" height="16" viewBox="0 0 16 16"><defs><style>.a{fill:#fff;opacity:0;}.b{fill:#6e6e6e;}</style></defs><g transform="translate(-100 -977)"><rect class="a" width="16" height="16" transform="translate(100 977)"/><path class="b" d="M4.5,6.278V18.722A1.777,1.777,0,0,0,6.278,20.5H18.722A1.783,1.783,0,0,0,20.5,18.722V6.278A1.783,1.783,0,0,0,18.722,4.5H6.278A1.777,1.777,0,0,0,4.5,6.278ZM15.167,9.833A2.667,2.667,0,1,1,12.5,7.167,2.663,2.663,0,0,1,15.167,9.833Zm-8,7.111c0-1.778,3.556-2.756,5.333-2.756s5.333.978,5.333,2.756v.889H7.167Z" transform="translate(95.5 972.5)"/></g></svg>