<svg xmlns="http://www.w3.org/2000/svg" width="16" height="16" viewBox="0 0 16 16"><defs><style>.a{fill:none;}.b,.c{stroke:none;}.c{fill:#ffc53d;}</style></defs><g class="a" transform="translate(-1.441 0.001)"><path class="b" d="M8.583.556,6.63,4.693l-4.369.666a1.013,1.013,0,0,0-.529,1.706l3.161,3.218-.748,4.546a.966.966,0,0,0,1.388,1.053l3.909-2.147,3.909,2.147a.967.967,0,0,0,1.388-1.053l-.748-4.546,3.161-3.218a1.013,1.013,0,0,0-.529-1.706l-4.369-.666L10.3.556A.94.94,0,0,0,8.583.556Z"/><path class="c" d="M 9.441375732421875 3.422538757324219 L 8.438774108886719 5.546443939208984 L 7.984164237976074 6.509503364562988 L 6.931333541870117 6.669863700866699 L 4.509788513183594 7.038714408874512 L 6.319443702697754 8.881143569946289 L 7.030823707580566 9.605413436889648 L 6.866084098815918 10.60716438293457 L 6.457395553588867 13.09228515625 L 8.478643417358398 11.98226356506348 L 9.441373825073242 11.45355415344238 L 10.40410423278809 11.98226356506348 L 12.42535209655762 13.09228515625 L 12.01666450500488 10.60716438293457 L 11.85192394256592 9.605413436889648 L 12.56330394744873 8.881143569946289 L 14.37295913696289 7.038714408874512 L 11.95141410827637 6.669863700866699 L 10.89858436584473 6.509503364562988 L 10.44397354125977 5.546443939208984 L 9.441375732421875 3.422538757324219 M 9.439263343811035 -0.00089263916015625 C 9.781614303588867 -0.0008544921875 10.12420463562012 0.1858539581298828 10.2996940612793 0.5556840896606445 L 12.25258445739746 4.692673683166504 L 16.62192344665527 5.358213424682617 C 17.40547370910645 5.476953506469727 17.7194938659668 6.486204147338867 17.15126419067383 7.064253807067871 L 13.99015426635742 10.28261375427246 L 14.73781394958496 14.82892417907715 C 14.84426116943359 15.47890663146973 14.34831428527832 15.99787902832031 13.79295921325684 15.99787902832031 C 13.64618110656738 15.99787902832031 13.49519538879395 15.96160221099854 13.35015392303467 15.88191413879395 L 9.441373825073242 13.73530387878418 L 5.532593727111816 15.88191413879395 C 5.387128829956055 15.96249103546143 5.235804557800293 15.99910831451416 5.088623046875 15.99910831451416 C 4.533787727355957 15.99910831451416 4.038569450378418 15.4784049987793 4.144933700561523 14.82892417907715 L 4.892593383789063 10.28261375427246 L 1.731483459472656 7.064253807067871 C 1.163253784179688 6.486204147338867 1.477273941040039 5.476953506469727 2.260824203491211 5.358213424682617 L 6.63016414642334 4.692673683166504 L 8.583053588867188 0.5556840896606445 C 8.758965492248535 0.1834335327148438 9.098995208740234 -0.0009307861328125 9.439263343811035 -0.00089263916015625 Z"/></g></svg>