<svg xmlns="http://www.w3.org/2000/svg" width="24" height="21.333" viewBox="0 0 24 21.333"><defs><style>.a{fill:#a0a0a0;}</style></defs><path class="a" d="M23.333,12H20v4l-1.333-.887L17.333,16V12H14a.669.669,0,0,0-.667.667v8a.669.669,0,0,0,.667.667h9.333A.669.669,0,0,0,24,20.667v-8A.669.669,0,0,0,23.333,12Zm-16-2.667h9.333a.669.669,0,0,0,.667-.667v-8A.669.669,0,0,0,16.667,0H13.333V4L12,3.112,10.667,4V0H7.333a.669.669,0,0,0-.667.667v8A.669.669,0,0,0,7.333,9.333ZM10,12H6.667v4l-1.333-.887L4,16V12H.667A.669.669,0,0,0,0,12.667v8a.669.669,0,0,0,.667.667H10a.669.669,0,0,0,.667-.667v-8A.669.669,0,0,0,10,12Z"/></svg>