<svg xmlns="http://www.w3.org/2000/svg" width="16" height="18" viewBox="0 0 16 18"><path d="M15.571,16.875h-.714V.844A.851.851,0,0,0,14,0H2a.851.851,0,0,0-.857.844V16.875H.429A.425.425,0,0,0,0,17.3V18H16v-.7A.425.425,0,0,0,15.571,16.875Zm-11-14.2A.425.425,0,0,1,5,2.25H6.429a.425.425,0,0,1,.429.422V4.078a.425.425,0,0,1-.429.422H5a.425.425,0,0,1-.429-.422Zm0,3.375A.425.425,0,0,1,5,5.625H6.429a.425.425,0,0,1,.429.422V7.453a.425.425,0,0,1-.429.422H5a.425.425,0,0,1-.429-.422Zm1.857,5.2H5a.425.425,0,0,1-.429-.422V9.422A.425.425,0,0,1,5,9H6.429a.425.425,0,0,1,.429.422v1.406A.425.425,0,0,1,6.429,11.25Zm2.714,5.625H6.857V13.922a.425.425,0,0,1,.429-.422H8.714a.425.425,0,0,1,.429.422Zm2.286-6.047A.425.425,0,0,1,11,11.25H9.571a.425.425,0,0,1-.429-.422V9.422A.425.425,0,0,1,9.571,9H11a.425.425,0,0,1,.429.422Zm0-3.375A.425.425,0,0,1,11,7.875H9.571a.425.425,0,0,1-.429-.422V6.047a.425.425,0,0,1,.429-.422H11a.425.425,0,0,1,.429.422Zm0-3.375A.425.425,0,0,1,11,4.5H9.571a.425.425,0,0,1-.429-.422V2.672a.425.425,0,0,1,.429-.422H11a.425.425,0,0,1,.429.422Z"/></svg>