<svg xmlns="http://www.w3.org/2000/svg" width="32" height="32" viewBox="0 0 32 32"><defs><style>.a{fill:#ffc53d;}.b,.c{stroke:none;}.c{fill:#ffc53d;}</style></defs><g class="a" transform="translate(-1.441 0.001)"><path class="b" d="M 8.735874176025391 30.99910736083984 C 8.487483978271484 30.99910736083984 8.233823776245117 30.87507629394531 8.057323455810547 30.66732597351074 C 7.944393634796143 30.53439712524414 7.765383720397949 30.24758720397949 7.835343837738037 29.82034683227539 L 9.330574035644531 20.72838592529297 L 9.412943840026855 20.22750663757324 L 9.057244300842285 19.86536598205566 L 2.735003709793091 13.42866611480713 C 2.323223829269409 13.00975608825684 2.450413942337036 12.49977684020996 2.499193906784058 12.3534460067749 C 2.555853843688965 12.18350601196289 2.74048376083374 11.78023624420166 3.230093717575073 11.70603656768799 L 11.96953392028809 10.37484645843506 L 12.49595355987549 10.29465675354004 L 12.72326374053955 9.813126564025879 L 16.62905311584473 1.539146423339844 C 16.8593635559082 1.051766395568848 17.27090454101563 0.9991064667701721 17.43715476989746 0.9991064667701721 C 17.78799438476563 0.9991064667701721 18.09356307983398 1.201676487922668 18.25456428527832 1.540966510772705 L 22.15949440002441 9.813126564025879 L 22.38680458068848 10.29465675354004 L 22.91322326660156 10.37484645843506 L 31.65189361572266 11.7059268951416 C 32.14226531982422 11.78023624420166 32.3268928527832 12.18350601196289 32.38355255126953 12.3534460067749 C 32.43233489990234 12.49977684020996 32.55952453613281 13.00975608825684 32.14801406860352 13.42839622497559 L 25.82551383972168 19.86537551879883 L 25.46981430053711 20.22750663757324 L 25.55218315124512 20.7283763885498 L 27.04750442504883 29.82100677490234 C 27.11717414855957 30.24640655517578 26.93903350830078 30.53195571899414 26.82663345336914 30.66425704956055 C 26.64980506896973 30.87238121032715 26.39485549926758 30.99664688110352 26.14468383789063 30.99664688110352 C 26.1446533203125 30.99664688110352 26.14465522766113 30.99664688110352 26.14462471008301 30.99664688110352 C 26.00730323791504 30.99663734436035 25.87132453918457 30.96018600463867 25.74046325683594 30.88828659057617 L 17.92273330688477 26.5949764251709 L 17.44137382507324 26.33062553405762 L 16.96001434326172 26.5949764251709 L 9.142454147338867 30.88819694519043 C 9.008513450622559 30.96237564086914 8.872794151306152 30.99910736083984 8.735874176025391 30.99910736083984 Z"/><path class="c" d="M 17.44138145446777 2.160867691040039 L 13.6275634765625 10.24001693725586 L 13.17294311523438 11.20307731628418 L 12.1201229095459 11.36343574523926 L 3.443618774414063 12.68505477905273 C 3.440610885620117 12.69917488098145 3.439567565917969 12.7132511138916 3.441583633422852 12.72014617919922 C 3.441593170166016 12.72017669677734 3.443193435668945 12.72260665893555 3.448423385620117 12.72793579101563 L 9.770654678344727 19.16463661193848 L 10.4820442199707 19.88890647888184 L 10.31730461120605 20.89065551757813 L 8.832826614379883 29.9173583984375 L 16.4786434173584 25.71845626831055 L 17.44137382507324 25.18974685668945 L 18.40410423278809 25.71845626831055 L 26.04992294311523 29.9173583984375 L 24.56544494628906 20.89065551757813 L 24.40070343017578 19.88890647888184 L 25.11209487915039 19.16463661193848 L 31.43487358093262 12.72737693786621 C 31.43805503845215 12.72413444519043 31.4398136138916 12.72197341918945 31.44022941589355 12.72171974182129 C 31.44254493713379 12.7132682800293 31.44172668457031 12.69898223876953 31.43892669677734 12.68501472473145 L 22.76263427734375 11.36343574523926 L 21.70981407165527 11.20307731628418 L 21.25519371032715 10.24001693725586 L 17.44138145446777 2.160867691040039 M 17.4371509552002 -0.00089263916015625 C 18.12185096740723 -0.000812530517578125 18.80703544616699 0.3726062774658203 19.15801429748535 1.112266540527344 L 23.06380462646484 9.386245727539063 L 31.8024730682373 10.71732711791992 C 33.36957550048828 10.95479583740234 33.99760437011719 12.97329711914063 32.86116409301758 14.1294059753418 L 26.53893280029297 20.56610679626465 L 28.03425407409668 29.65872573852539 C 28.24714660644531 30.95870018005371 27.25525665283203 31.99665069580078 26.14454650878906 31.99665069580078 C 25.85099220275879 31.99665069580078 25.54901885986328 31.92409515380859 25.25893402099609 31.76471710205078 L 17.44137382507324 27.47149658203125 L 9.623813629150391 31.76471710205078 C 9.332883834838867 31.92587089538574 9.030237197875977 31.99910545349121 8.735872268676758 31.99910545349121 C 7.626203536987305 31.99910545349121 6.635765075683594 30.95769691467285 6.848493576049805 29.65872573852539 L 8.343812942504883 20.56610679626465 L 2.021583557128906 14.1294059753418 C 0.8851432800292969 12.97329711914063 1.513172149658203 10.95479583740234 3.08027458190918 10.71732711791992 L 11.81895446777344 9.386245727539063 L 15.7247428894043 1.112266540527344 C 16.07656097412109 0.3677597045898438 16.75661468505859 -0.00096893310546875 17.4371509552002 -0.00089263916015625 Z"/></g></svg>