<svg xmlns="http://www.w3.org/2000/svg" width="16" height="16" viewBox="0 0 16 16"><defs><style>.a{fill:#a0a0a0;}</style></defs><path class="a" d="M14.853,7.038l-1.16-1.014L7.893,11.1a1.968,1.968,0,0,0,0,3.044,2.716,2.716,0,0,0,3.48,0l6.96-6.089a3.279,3.279,0,0,0,0-5.074,4.525,4.525,0,0,0-5.8,0L5.226,9.373l-.016.013a4.574,4.574,0,0,0,0,7.077,6.314,6.314,0,0,0,8.089,0l.015-.014h0L18.3,12.085l-1.16-1.014-4.988,4.363-.015.013a4.508,4.508,0,0,1-5.769,0,3.265,3.265,0,0,1,0-5.047l.016-.013h0l7.309-6.393a2.719,2.719,0,0,1,3.48,0,1.97,1.97,0,0,1,0,3.044l-6.96,6.089a.906.906,0,0,1-1.16,0,.657.657,0,0,1,0-1.014l5.8-5.075Z" transform="translate(-3.535 -1.928)"/></svg>