<svg xmlns="http://www.w3.org/2000/svg" width="20" height="20" viewBox="0 0 20 20"><defs><style>.a{fill:#949494;opacity:0;}.b{fill:#a0a0a0;}</style></defs><g transform="translate(-551 -433)"><rect class="a" width="20" height="20" transform="translate(551 433)"/><path class="b" d="M16.545,18.75h-.759V.938A.924.924,0,0,0,14.875,0H2.125a.924.924,0,0,0-.911.938V18.75H.455A.462.462,0,0,0,0,19.219V20H17v-.781A.462.462,0,0,0,16.545,18.75ZM4.857,2.969A.462.462,0,0,1,5.313,2.5H6.83a.462.462,0,0,1,.455.469V4.531A.462.462,0,0,1,6.83,5H5.313a.462.462,0,0,1-.455-.469Zm0,3.75a.462.462,0,0,1,.455-.469H6.83a.462.462,0,0,1,.455.469V8.281a.462.462,0,0,1-.455.469H5.313a.462.462,0,0,1-.455-.469ZM6.83,12.5H5.313a.462.462,0,0,1-.455-.469V10.469A.462.462,0,0,1,5.313,10H6.83a.462.462,0,0,1,.455.469v1.563A.462.462,0,0,1,6.83,12.5Zm2.884,6.25H7.286V15.469A.462.462,0,0,1,7.741,15H9.259a.462.462,0,0,1,.455.469Zm2.429-6.719a.462.462,0,0,1-.455.469H10.17a.462.462,0,0,1-.455-.469V10.469A.462.462,0,0,1,10.17,10h1.518a.462.462,0,0,1,.455.469Zm0-3.75a.462.462,0,0,1-.455.469H10.17a.462.462,0,0,1-.455-.469V6.719a.462.462,0,0,1,.455-.469h1.518a.462.462,0,0,1,.455.469Zm0-3.75A.462.462,0,0,1,11.688,5H10.17a.462.462,0,0,1-.455-.469V2.969A.462.462,0,0,1,10.17,2.5h1.518a.462.462,0,0,1,.455.469Z" transform="translate(553 433)"/></g></svg>