<svg xmlns="http://www.w3.org/2000/svg" width="32" height="32" viewBox="0 0 32 32"><defs><style>.a{fill:none;}.b,.c{stroke:none;}.c{fill:#ffc53d;}</style></defs><g class="a" transform="translate(-1.441 0.001)"><path class="b" d="M15.725,1.112,11.819,9.386,3.08,10.717a2.026,2.026,0,0,0-1.059,3.412l6.322,6.437-1.5,9.093a1.932,1.932,0,0,0,2.775,2.106l7.818-4.293,7.818,4.293a1.933,1.933,0,0,0,2.775-2.106l-1.5-9.093,6.322-6.437A2.025,2.025,0,0,0,31.8,10.717L23.064,9.386,19.158,1.112A1.88,1.88,0,0,0,15.725,1.112Z"/><path class="c" d="M 17.44138145446777 2.160867691040039 L 13.6275634765625 10.24001693725586 L 13.17294311523438 11.20307731628418 L 12.1201229095459 11.36343574523926 L 3.443618774414063 12.68505477905273 C 3.440610885620117 12.69917488098145 3.439567565917969 12.7132511138916 3.441583633422852 12.72014617919922 C 3.441593170166016 12.72017669677734 3.443193435668945 12.72260665893555 3.448423385620117 12.72793579101563 L 9.770654678344727 19.16463661193848 L 10.4820442199707 19.88890647888184 L 10.31730461120605 20.89065551757813 L 8.832826614379883 29.9173583984375 L 16.4786434173584 25.71845626831055 L 17.44137382507324 25.18974685668945 L 18.40410423278809 25.71845626831055 L 26.04992294311523 29.9173583984375 L 24.56544494628906 20.89065551757813 L 24.40070343017578 19.88890647888184 L 25.11209487915039 19.16463661193848 L 31.43487358093262 12.72737693786621 C 31.43805503845215 12.72413444519043 31.4398136138916 12.72197341918945 31.44022941589355 12.72171974182129 C 31.44254493713379 12.7132682800293 31.44172668457031 12.69898223876953 31.43892669677734 12.68501472473145 L 22.76263427734375 11.36343574523926 L 21.70981407165527 11.20307731628418 L 21.25519371032715 10.24001693725586 L 17.44138145446777 2.160867691040039 M 17.4371509552002 -0.00089263916015625 C 18.12185096740723 -0.000812530517578125 18.80703544616699 0.3726062774658203 19.15801429748535 1.112266540527344 L 23.06380462646484 9.386245727539063 L 31.8024730682373 10.71732711791992 C 33.36957550048828 10.95479583740234 33.99760437011719 12.97329711914063 32.86116409301758 14.1294059753418 L 26.53893280029297 20.56610679626465 L 28.03425407409668 29.65872573852539 C 28.24714660644531 30.95870018005371 27.25525665283203 31.99665069580078 26.14454650878906 31.99665069580078 C 25.85099220275879 31.99665069580078 25.54901885986328 31.92409515380859 25.25893402099609 31.76471710205078 L 17.44137382507324 27.47149658203125 L 9.623813629150391 31.76471710205078 C 9.332883834838867 31.92587089538574 9.030237197875977 31.99910545349121 8.735872268676758 31.99910545349121 C 7.626203536987305 31.99910545349121 6.635765075683594 30.95769691467285 6.848493576049805 29.65872573852539 L 8.343812942504883 20.56610679626465 L 2.021583557128906 14.1294059753418 C 0.8851432800292969 12.97329711914063 1.513172149658203 10.95479583740234 3.08027458190918 10.71732711791992 L 11.81895446777344 9.386245727539063 L 15.7247428894043 1.112266540527344 C 16.07656097412109 0.3677597045898438 16.75661468505859 -0.00096893310546875 17.4371509552002 -0.00089263916015625 Z"/></g></svg>