<svg xmlns="http://www.w3.org/2000/svg" width="17.5" height="14" viewBox="0 0 17.5 14"><defs><style>.a{fill:#a0a0a0;}</style></defs><path class="a" d="M17.063,5.688h-5.25a.439.439,0,0,0-.437.438V7a.439.439,0,0,0,.438.438h5.25A.439.439,0,0,0,17.5,7V6.125A.439.439,0,0,0,17.063,5.688ZM6.125,7a3.5,3.5,0,1,0-3.5-3.5A3.5,3.5,0,0,0,6.125,7Zm2.45.875H8.118a4.76,4.76,0,0,1-3.987,0H3.675A3.676,3.676,0,0,0,0,11.55v1.138A1.313,1.313,0,0,0,1.313,14h9.625a1.313,1.313,0,0,0,1.313-1.312V11.55A3.676,3.676,0,0,0,8.575,7.875Z"/></svg>