<svg xmlns="http://www.w3.org/2000/svg" width="16" height="18" viewBox="0 0 16 18"><defs><style>.a{fill:#a0a0a0;}</style></defs><path class="a" d="M16,13.5c-1,0-1.116-1.125-2.661-1.125S11.667,13.5,10.67,13.5,9.546,12.375,8,12.375c-1.53,0-1.686,1.125-2.661,1.125-1.005,0-1.114-1.125-2.67-1.125S1,13.5,0,13.5V10.688A1.7,1.7,0,0,1,1.714,9h.571V3.938H4.571V9H6.857V3.938H9.143V9h2.286V3.938h2.286V9h.571A1.7,1.7,0,0,1,16,10.688ZM16,18H0V14.625c1.548,0,1.67-1.125,2.67-1.125s1.116,1.125,2.67,1.125C6.869,14.625,7.026,13.5,8,13.5c1.005,0,1.114,1.125,2.67,1.125s1.67-1.125,2.67-1.125c.982,0,1.116,1.125,2.661,1.125ZM3.429,3.375A1.131,1.131,0,0,1,2.286,2.25c0-1.09,1.143-.809,1.143-2.25.429,0,1.143,1.037,1.143,1.969S4.063,3.375,3.429,3.375ZM8,3.375A1.131,1.131,0,0,1,6.857,2.25C6.857,1.16,8,1.441,8,0c.429,0,1.143,1.037,1.143,1.969S8.634,3.375,8,3.375Zm4.571,0A1.131,1.131,0,0,1,11.429,2.25c0-1.09,1.143-.809,1.143-2.25C13,0,13.714,1.037,13.714,1.969S13.205,3.375,12.571,3.375Z"/></svg>