<svg xmlns="http://www.w3.org/2000/svg" width="16" height="16" viewBox="0 0 16 16"><defs><style>.a{fill:#6e6e6e;}</style></defs><g transform="translate(16026.25 -318.375)"><path class="a" d="M2.667,0A2.79,2.79,0,0,0,.637.713,2.356,2.356,0,0,0,0,2.095l1.08.14a1.308,1.308,0,0,1,.335-.745,1.6,1.6,0,0,1,1.252-.41,1.9,1.9,0,0,1,1.317.367.9.9,0,0,1,.3.713c0,.9-.367,1.144-.907,1.619A3.077,3.077,0,0,0,2.127,6.208v.27h1.08v-.27a1.8,1.8,0,0,1,.875-1.619A3.1,3.1,0,0,0,5.366,2.159,2.074,2.074,0,0,0,4.729.637,2.984,2.984,0,0,0,2.667,0Zm-.54,7.558v1.08h1.08V7.558Z" transform="translate(-16021.043 321.933)"/><g transform="translate(-16026.25 318.375)"><path class="a" d="M11.375,4.99A6.382,6.382,0,1,1,6.86,6.86,6.358,6.358,0,0,1,11.375,4.99m0-1.615a8,8,0,1,0,8,8,8,8,0,0,0-8-8Z" transform="translate(-3.375 -3.375)"/></g></g></svg>