<svg xmlns="http://www.w3.org/2000/svg" width="16" height="20" viewBox="0 0 16 20"><defs><style>.a{fill:#a0a0a0;}</style></defs><g transform="translate(-6.761 -3.93)"><path class="a" d="M17.585,31.614c1.923,0,2.975-1.361,2.975-3.278H14.6C14.6,30.253,15.655,31.614,17.585,31.614Z" transform="translate(-2.832 -7.683)"/><path class="a" d="M22.558,17.971c-.77-.962-2.286-1.526-2.286-5.833,0-4.421-2.061-6.2-3.981-6.625-.18-.043-.31-.1-.31-.28V5.1a1.222,1.222,0,0,0-2.441,0v.137c0,.175-.13.237-.31.28-1.926.431-3.981,2.2-3.981,6.625,0,4.307-1.515,4.867-2.286,5.833a.938.938,0,0,0,.8,1.507h14.01A.938.938,0,0,0,22.558,17.971Z" transform="translate(0 0)"/></g></svg>